<svg xmlns="http://www.w3.org/2000/svg" xmlns:xlink="http://www.w3.org/1999/xlink" width="930px" height="510px" viewBox="0 2.83107e-14 930 510" preserveAspectRatio="xMidYMid meet"  ><rect id="svgEditorBackground" x="0" y="0" width="930" height="510" style="fill: none; stroke: none;"/><ellipse id="e1_ellipse" cx="465" cy="207.00000000000003" style="fill:#FDFD6C;stroke:#FDFD6C;stroke-width:1px;" rx="119" ry="80"/><ellipse id="e3_ellipse" cx="415.7203369140625" cy="210.41381835937497" style="fill:#FFFFFF;stroke:#000000;stroke-width:1px;" rx="24.0174" ry="23.1913" /><ellipse id="e2_ellipse" cx="509.2203369140625" cy="207.91381835937497" style="fill:#FFFFFF;stroke:black;stroke-width:1px;" rx="24.0174" ry="23.1913" /><ellipse id="e4_ellipse" cx="463.72" cy="252.414" style="fill:#FFFFFF;stroke:#FFFFFF;stroke-width:1px;" rx="20.6549" ry="2.11277" /><ellipse id="e8_ellipse" cx="415.7203369140625" cy="210.41380310058594" style="fill:#00B8FF;stroke:#00B8FF;stroke-width:1px;" rx="20.7178" ry="19.5803" /><ellipse id="e5_ellipse" cx="509.22033691406256" cy="207.91380310058594" style="fill:#00B8FF;stroke:#00B8FF;stroke-width:1px;" rx="20.7178" ry="19.5803" /><circle id="e9_circle" cx="415.2203369140625" cy="209.913818359375" style="fill:#000000;stroke:black;stroke-width:1px;" r="17.327723451163436"/><circle id="e2_circle" cx="508.7203369140625" cy="207.413818359375" style="fill:#000000;stroke:black;stroke-width:1px;" r="17.327723451163436"/><rect x="448.7203369140625" y="130.41381835937497" style="fill:#FFFFFF;stroke:#FFFFFF;stroke-width:1px;" id="e10_rectangle" width="27" height="32.5" ry="0" rx="0" /><rect x="483.2200012207031" y="136.91400146484372" style="fill:#FFFFFF;stroke:#FFFFFF;stroke-width:1px;" id="e13_rectangle" width="21" height="22.5" ry="0" rx="0" /><ellipse id="e14_ellipse" cx="395.7203369140625" cy="244.913818359375" style="fill:#F35F31;stroke:#F35F31;stroke-width:1px;" rx="10.5" ry="6"/><ellipse id="e6_ellipse" cx="528.2203369140625" cy="244.91381835937497" style="fill:#F35F31;stroke:#F35F31;stroke-width:1px;" rx="10.5" ry="6"/><rect x="419.7200012207031" y="137.41400146484372" style="fill:#FFFFFF;stroke:#FFFFFF;stroke-width:1px;" id="e1_rectangle" width="21" height="22.5" ry="0" rx="0" /><rect x="344.20068359375" y="126.63653564453122" style="fill:#FDFD6C;stroke:#FDFD6C;stroke-width:1px;" id="e15_rectangle" width="41.5" height="32.5" ry="0" rx="0" transform="matrix(0.984627 -0.431637 0.431637 0.984627 -40.0354 132.909)"/><rect x="484.9383850097656" y="93.96417999267575" style="fill:#FDFD6C;stroke:#FDFD6C;stroke-width:1px;" id="e2_rectangle" width="41.5" height="32.5" ry="0" rx="0" transform="matrix(0.972919 0.457416 -0.457416 0.972919 104.481 -225.202)"/><ellipse id="e16_ellipse" cx="324.726" cy="29.1116" style="fill:#FDFD6C;stroke:#FDFD6C;stroke-width:1px;" rx="18.5" ry="6" transform="matrix(0.606659 -0.901473 0.901473 0.606659 123.495 375.159)"/><ellipse id="e7_ellipse" cx="386.8090515136852" cy="-75.6643142700409" style="fill:#FDFD6C;stroke:#FDFD6C;stroke-width:1px;" rx="18.5" ry="6" transform="matrix(-0.578957 -0.919509 0.919509 -0.578957 876.719 413.813)"/><ellipse id="e19_ellipse" cx="464.1436462402344" cy="334.18780517578125" style="fill:#FDFD6C;stroke:#FDFD6C;stroke-width:1px;" rx="42" ry="38"/><ellipse id="e9_ellipse" cx="687.6591186523438" cy="-26.851778030395508" style="fill:#FDFD6C;stroke:#FDFD6C;stroke-width:1px;" rx="10.1855" ry="6.60766" transform="matrix(-0.230338 1.0619 -1.0619 -0.230338 572.119 -348.307)"/><ellipse id="e10_ellipse" cx="712.2157592773438" cy="-77.22843170166016" style="fill:#FDFD6C;stroke:#FDFD6C;stroke-width:1px;" rx="10.1855" ry="6.60766" transform="matrix(0.162721 1.07434 -1.07434 0.162721 292.415 -366.335)"/><ellipse id="e11_ellipse" cx="283.892" cy="426.339" style="fill:#FDFD6C;stroke:#FDFD6C;stroke-width:1px;" rx="74.2552" ry="34.604" transform="matrix(0.0834143 -0.822276 0.586763 0.116895 128.277 558.441)"/><ellipse id="e21_ellipse" cx="573.863" cy="-20.5521" style="fill:#FFFFFF;stroke:#FFFFFF;stroke-width:1px;" rx="9.71966" ry="25.3685" transform="matrix(-0.069178 -0.871706 0.551644 -0.378095 446.405 667.479)"/><text style="fill:black;font-family:Courier New;font-size:18.5px;font-style:normal;font-weight:bold;text-decoration:blink;" x="458.791" y="332.899" id="e22_texte" transform="matrix(0.764293 0 0 0.764293 83.9573 80.6819)">MIRACLE</text><ellipse id="e12_ellipse" cx="312.1062316894522" cy="638.6100463866728" style="fill:#FDFD6C;stroke:#FDFD6C;stroke-width:1px;" rx="74.2552" ry="34.604" transform="matrix(-0.0609692 -0.824244 0.598153 0.0129896 163.862 620.743)"/><ellipse id="e13_ellipse" cx="480.735" cy="213.987" style="fill:#FFFFFF;stroke:#FFFFFF;stroke-width:1px;" rx="9.71966" ry="25.3685" transform="matrix(-0.841222 0.238751 -0.478917 -0.466803 1040.08 160.626)"/></svg>