<svg xmlns="http://www.w3.org/2000/svg" xmlns:xlink="http://www.w3.org/1999/xlink" width="930px" height="510px" viewBox="0 2.83107e-14 930 510" preserveAspectRatio="xMidYMid meet" ><rect id="svgEditorBackground" x="0" y="0" width="930" height="510" style="fill:none; stroke: none;"/><ellipse id="e1_ellipse" cx="465" cy="206.99999999999997" style="fill:#FDFD6C;stroke:#FDFD6C;stroke-width:1px;" rx="119" ry="80"/><ellipse id="e3_ellipse" cx="415.7203369140625" cy="210.41381835937497" style="fill:#FFFFFF;stroke:#000000;stroke-width:1px;" rx="24.0174" ry="23.1913"/><ellipse id="e2_ellipse" cx="509.2203369140625" cy="207.91381835937497" style="fill:#FFFFFF;stroke:black;stroke-width:1px;" rx="24.0174" ry="23.1913"/><ellipse id="e4_ellipse" cx="463.72" cy="252.414" style="fill:#FFFFFF;stroke:#FFFFFF;stroke-width:1px;" rx="25.1507" ry="28.842" /><ellipse id="e8_ellipse" cx="418.7203369140625" cy="208.9138031005859" style="fill:#00B8FF;stroke:#00B8FF;stroke-width:1px;" rx="20.7178" ry="19.5803"/><ellipse id="e5_ellipse" cx="506.2203369140625" cy="205.9138031005859" style="fill:#00B8FF;stroke:#00B8FF;stroke-width:1px;" rx="20.7178" ry="19.5803"/><circle id="e9_circle" cx="421.2203369140625" cy="208.41381835937497" style="fill:#000000;stroke:black;stroke-width:1px;" r="17.327723451163436"/><circle id="e2_circle" cx="503.7203369140625" cy="205.41381835937497" style="fill:#000000;stroke:black;stroke-width:1px;" r="17.327723451163436"/><rect x="448.7203369140625" y="130.41381835937497" style="fill:#FFFFFF;stroke:#FFFFFF;stroke-width:1px;" id="e10_rectangle" width="27" height="32.5" ry="0" rx="0"/><rect x="483.2200012207031" y="136.91400146484372" style="fill:#FFFFFF;stroke:#FFFFFF;stroke-width:1px;" id="e13_rectangle" width="21" height="22.5" ry="0" rx="0"/><ellipse id="e14_ellipse" cx="395.7203369140625" cy="244.91381835937497" style="fill:#F35F31;stroke:#F35F31;stroke-width:1px;" rx="10.5" ry="6"/><ellipse id="e6_ellipse" cx="528.2203369140625" cy="244.91381835937497" style="fill:#F35F31;stroke:#F35F31;stroke-width:1px;" rx="10.5" ry="6"/><rect x="419.7200012207031" y="137.41400146484372" style="fill:#FFFFFF;stroke:#FFFFFF;stroke-width:1px;" id="e1_rectangle" width="21" height="22.5" ry="0" rx="0"/><rect x="344.20068359375" y="126.63653564453122" style="fill:#FDFD6C;stroke:#FDFD6C;stroke-width:1px;" id="e15_rectangle" width="41.5" height="32.5" ry="0" rx="0" transform="matrix(0.984627 -0.431637 0.431637 0.984627 -40.0354 132.909)"/><rect x="484.9383850097656" y="93.96417999267575" style="fill:#FDFD6C;stroke:#FDFD6C;stroke-width:1px;" id="e2_rectangle" width="41.5" height="32.5" ry="0" rx="0" transform="matrix(0.972919 0.457416 -0.457416 0.972919 104.481 -225.202)"/><ellipse id="e16_ellipse" cx="340.037" cy="52.9727" style="fill:#FDFD6C;stroke:#FDFD6C;stroke-width:1px;" rx="18.5" ry="6" transform="matrix(0.623502 0.889906 -0.889906 0.623502 191.817 -259.925)"/><ellipse id="e7_ellipse" cx="382.8" cy="-72.7511" style="fill:#FDFD6C;stroke:#FDFD6C;stroke-width:1px;" rx="18.5" ry="6" transform="matrix(-0.565661 0.927747 -0.927747 -0.565661 717.67 -322.587)"/><ellipse id="e19_ellipse" cx="464.1436462402344" cy="334.18780517578125" style="fill:#FDFD6C;stroke:#FDFD6C;stroke-width:1px;" rx="42" ry="38"/><ellipse id="e9_ellipse" cx="687.6591186523438" cy="-26.851778030395508" style="fill:#FDFD6C;stroke:#FDFD6C;stroke-width:1px;" rx="10.1855" ry="6.60766" transform="matrix(-0.230338 1.0619 -1.0619 -0.230338 572.119 -348.307)"/><ellipse id="e10_ellipse" cx="712.2157592773438" cy="-77.22843170166016" style="fill:#FDFD6C;stroke:#FDFD6C;stroke-width:1px;" rx="10.1855" ry="6.60766" transform="matrix(0.162721 1.07434 -1.07434 0.162721 292.415 -366.335)"/><ellipse id="e11_ellipse" cx="423.45327758579424" cy="437.8464355464474" style="fill:#FDFD6C;stroke:#FDFD6C;stroke-width:1px;" rx="112.268" ry="27.8219" transform="matrix(-0.51247 -0.653588 0.653588 -0.51247 255.448 747.883)"/><text style="fill:black;font-family:Courier New;font-size:18.5px;font-style:normal;font-weight:bold;text-decoration:blink;" x="458.791" y="332.899" id="e22_texte" transform="matrix(0.764293 0 0 0.764293 83.9573 80.6819)">MIRACLE</text><ellipse id="e12_ellipse" cx="384.924163818425" cy="329.94586181504155" style="fill:#FFFFFF;stroke:#FFFFFF;stroke-width:1px;" rx="31.7667" ry="8.9904" transform="matrix(-0.558002 -0.829839 0.829839 -0.558002 228.196 707.093)"/><ellipse id="e13_ellipse" cx="212.449" cy="657.806" style="fill:#FDFD6C;stroke:#FDFD6C;stroke-width:1px;" rx="112.268" ry="27.8219" transform="matrix(0.601594 -0.572614 0.572614 0.601594 105.467 -26.9247)"/><ellipse id="e15_ellipse" cx="167.77" cy="628.208" style="fill:#FFFFFF;stroke:#FFFFFF;stroke-width:1px;" rx="31.7667" ry="8.9904" transform="matrix(0.602629 -0.798021 0.798021 0.602629 52.2275 -32.3164)"/></svg>