<svg xmlns="http://www.w3.org/2000/svg" xmlns:xlink="http://www.w3.org/1999/xlink" width="930px" height="510px" viewBox="0 2.83107e-14 930 510" preserveAspectRatio="xMidYMid meet" ><rect id="svgEditorBackground" x="0" y="0" width="930" height="510" style="fill:none; stroke: none;"/><ellipse id="e1_ellipse" cx="465" cy="207" style="fill:#FDFD6C;stroke:#FDFD6C;stroke-width:1px;" rx="119" ry="80" transform="matrix(1.24978 0 0 1.24978 -125.141 -58.3769)"/><ellipse id="e3_ellipse" cx="415.72" cy="210.414" style="fill:#FFFFFF;stroke:#000000;stroke-width:1px;" rx="24.0174" ry="23.1913" transform="matrix(1.24978 0 0 1.24978 -125.141 -58.3769)"/><ellipse id="e2_ellipse" cx="509.22" cy="207.914" style="fill:#FFFFFF;stroke:black;stroke-width:1px;" rx="24.0174" ry="23.1913" transform="matrix(1.24978 0 0 1.24978 -125.141 -58.3769)"/><ellipse id="e4_ellipse" cx="463.72" cy="252.414" style="fill:#FFFFFF;stroke:#FFFFFF;stroke-width:1px;" rx="15.5" ry="18.5" transform="matrix(1.24978 0 0 1.24978 -125.141 -58.3769)"/><ellipse id="e8_ellipse" cx="418.72" cy="208.914" style="fill:#00B8FF;stroke:#00B8FF;stroke-width:1px;" rx="20.7178" ry="19.5803" transform="matrix(1.24978 0 0 1.24978 -125.141 -58.3769)"/><ellipse id="e5_ellipse" cx="506.22" cy="205.914" style="fill:#00B8FF;stroke:#00B8FF;stroke-width:1px;" rx="20.7178" ry="19.5803" transform="matrix(1.24978 0 0 1.24978 -125.141 -58.3769)"/><circle id="e9_circle" cx="421.22" cy="208.414" style="fill:#000000;stroke:black;stroke-width:1px;" r="17.3277" transform="matrix(1.24978 0 0 1.24978 -125.141 -58.3769)"/><circle id="e2_circle" cx="503.72" cy="205.414" style="fill:#000000;stroke:black;stroke-width:1px;" r="17.3277" transform="matrix(1.24978 0 0 1.24978 -125.141 -58.3769)"/><rect x="448.72" y="130.414" style="fill:#FFFFFF;stroke:#FFFFFF;stroke-width:1px;" id="e10_rectangle" width="27" height="32.5" ry="0" rx="0" transform="matrix(1.24978 0 0 1.24978 -125.141 -58.3769)"/><rect x="483.22" y="136.914" style="fill:#FFFFFF;stroke:#FFFFFF;stroke-width:1px;" id="e13_rectangle" width="21" height="22.5" ry="0" rx="0" transform="matrix(1.24978 0 0 1.24978 -125.141 -58.3769)"/><ellipse id="e14_ellipse" cx="395.72" cy="244.914" style="fill:#F35F31;stroke:#F35F31;stroke-width:1px;" rx="10.5" ry="6" transform="matrix(1.24978 0 0 1.24978 -125.141 -58.3769)"/><ellipse id="e6_ellipse" cx="528.22" cy="244.914" style="fill:#F35F31;stroke:#F35F31;stroke-width:1px;" rx="10.5" ry="6" transform="matrix(1.24978 0 0 1.24978 -125.141 -58.3769)"/><rect x="419.72" y="137.414" style="fill:#FFFFFF;stroke:#FFFFFF;stroke-width:1px;" id="e1_rectangle" width="21" height="22.5" ry="0" rx="0" transform="matrix(1.24978 0 0 1.24978 -125.141 -58.3769)"/><rect x="344.201" y="126.637" style="fill:#FDFD6C;stroke:#FDFD6C;stroke-width:1px;" id="e15_rectangle" width="41.5" height="32.5" ry="0" rx="0" transform="matrix(1.23056 -0.53945 0.53945 1.23056 -175.176 107.73)"/><rect x="484.938" y="93.9642" style="fill:#FDFD6C;stroke:#FDFD6C;stroke-width:1px;" id="e2_rectangle" width="41.5" height="32.5" ry="0" rx="0" transform="matrix(1.21593 0.571668 -0.571668 1.21593 5.43731 -339.829)"/><ellipse id="e16_ellipse" cx="340.037" cy="52.9727" style="fill:#FDFD6C;stroke:#FDFD6C;stroke-width:1px;" rx="18.5" ry="6" transform="matrix(1.29009 0.424054 -0.424054 1.29009 -101.764 -160.82)"/><ellipse id="e7_ellipse" cx="382.8" cy="-72.7511" style="fill:#FDFD6C;stroke:#FDFD6C;stroke-width:1px;" rx="18.5" ry="6" transform="matrix(-0.287871 1.32714 -1.32714 -0.287871 589.88 -493.683)"/><ellipse id="e19_ellipse" cx="464.144" cy="334.188" style="fill:#FDFD6C;stroke:#FDFD6C;stroke-width:1px;" rx="42" ry="38" transform="matrix(1.24978 0 0 1.24978 -125.141 -58.3769)"/><ellipse id="e9_ellipse" cx="687.659" cy="-26.8518" style="fill:#FDFD6C;stroke:#FDFD6C;stroke-width:1px;" rx="10.1855" ry="6.60766" transform="matrix(-0.287871 1.32714 -1.32714 -0.287871 589.88 -493.683)"/><ellipse id="e10_ellipse" cx="712.216" cy="-77.2284" style="fill:#FDFD6C;stroke:#FDFD6C;stroke-width:1px;" rx="10.1855" ry="6.60766" transform="matrix(0.203365 1.34268 -1.34268 0.203365 240.313 -516.214)"/><ellipse id="e20_ellipse" cx="616.9" cy="347.25" style="fill:#FDFD6C;stroke:#FDFD6C;stroke-width:1px;" rx="79.4821" ry="35.0773" transform="matrix(0.904175 -0.509801 0.509801 0.904175 -144.703 309.183)"/><ellipse id="e11_ellipse" cx="255.805" cy="399.735" style="fill:#FDFD6C;stroke:#FDFD6C;stroke-width:1px;" rx="79.4821" ry="35.0773" transform="matrix(0.249102 -1.00766 1.00766 0.249102 -109.723 569.528)"/><ellipse id="e21_ellipse" cx="591.6" cy="328.887" style="fill:#FFFFFF;stroke:#FFFFFF;stroke-width:1px;" rx="20" ry="12" transform="matrix(1.10037 -0.592563 0.592563 1.10037 -222.014 273.161)"/><text style="fill:black;font-family:Courier New;font-size:18.5px;font-style:normal;font-weight:bold;text-decoration:blink;" x="458.791" y="332.899" id="e22_texte" transform="matrix(0.955195 0 0 0.955195 -20.2127 42.4574)">MIRACLE</text></svg>