<svg xmlns="http://www.w3.org/2000/svg" xmlns:xlink="http://www.w3.org/1999/xlink" width="930px" height="510px" viewBox="0 2.83107e-14 930 510" preserveAspectRatio="xMidYMid meet" ><rect id="svgEditorBackground" x="0" y="0" width="930" height="510" style="fill:none; stroke: none;"/><ellipse id="e1_ellipse" cx="465" cy="207" style="fill:#FDFD6C;stroke:#FDFD6C;stroke-width:1px;" rx="119" ry="80" transform="matrix(1.38027 0 0 1.38027 -221.138 -58.7866)"/><ellipse id="e3_ellipse" cx="415.72" cy="210.414" style="fill:#FFFFFF;stroke:#000000;stroke-width:1px;" rx="24.0174" ry="23.1913" transform="matrix(1.38027 0 0 1.38027 -221.138 -58.7866)"/><ellipse id="e2_ellipse" cx="509.22" cy="207.914" style="fill:#FFFFFF;stroke:black;stroke-width:1px;" rx="24.0174" ry="23.1913" transform="matrix(1.38027 0 0 1.38027 -221.138 -58.7866)"/><ellipse id="e4_ellipse" cx="463.72" cy="252.414" style="fill:#FFFFFF;stroke:#FFFFFF;stroke-width:1px;" rx="25.9811" ry="23.4457" transform="matrix(1.38027 0 0 1.38027 -221.138 -58.7866)"/><ellipse id="e8_ellipse" cx="418.72" cy="208.914" style="fill:#00B8FF;stroke:#00B8FF;stroke-width:1px;" rx="20.7178" ry="19.5803" transform="matrix(1.38027 0 0 1.38027 -221.138 -58.7866)"/><ellipse id="e5_ellipse" cx="510.22" cy="205.414" style="fill:#00B8FF;stroke:#00B8FF;stroke-width:1px;" rx="20.7178" ry="19.5803" transform="matrix(1.38027 0 0 1.38027 -221.138 -58.7866)"/><circle id="e9_circle" cx="421.22" cy="208.414" style="fill:#000000;stroke:black;stroke-width:1px;" r="17.3277" transform="matrix(1.38027 0 0 1.38027 -221.138 -58.7866)"/><circle id="e2_circle" cx="512.72" cy="203.914" style="fill:#000000;stroke:black;stroke-width:1px;" r="17.3277" transform="matrix(1.38027 0 0 1.38027 -221.138 -58.7866)"/><rect x="448.72" y="130.414" style="fill:#FFFFFF;stroke:#FFFFFF;stroke-width:1px;" id="e10_rectangle" width="27" height="32.5" ry="0" rx="0" transform="matrix(1.38027 0 0 1.38027 -221.138 -58.7866)"/><rect x="483.22" y="136.914" style="fill:#FFFFFF;stroke:#FFFFFF;stroke-width:1px;" id="e13_rectangle" width="21" height="22.5" ry="0" rx="0" transform="matrix(1.38027 0 0 1.38027 -221.138 -58.7866)"/><ellipse id="e14_ellipse" cx="395.72" cy="244.914" style="fill:#F35F31;stroke:#F35F31;stroke-width:1px;" rx="10.5" ry="6" transform="matrix(1.38027 0 0 1.38027 -221.138 -58.7866)"/><ellipse id="e6_ellipse" cx="528.22" cy="244.914" style="fill:#F35F31;stroke:#F35F31;stroke-width:1px;" rx="10.5" ry="6" transform="matrix(1.38027 0 0 1.38027 -221.138 -58.7866)"/><rect x="419.72" y="137.414" style="fill:#FFFFFF;stroke:#FFFFFF;stroke-width:1px;" id="e1_rectangle" width="21" height="22.5" ry="0" rx="0" transform="matrix(1.38027 0 0 1.38027 -221.138 -58.7866)"/><rect x="344.201" y="126.637" style="fill:#FDFD6C;stroke:#FDFD6C;stroke-width:1px;" id="e15_rectangle" width="41.5" height="32.5" ry="0" rx="0" transform="matrix(1.35906 -0.595777 0.595777 1.35906 -276.397 124.664)"/><rect x="484.938" y="93.9642" style="fill:#FDFD6C;stroke:#FDFD6C;stroke-width:1px;" id="e2_rectangle" width="41.5" height="32.5" ry="0" rx="0" transform="matrix(1.34289 0.63136 -0.63136 1.34289 -76.9252 -369.627)"/><ellipse id="e16_ellipse" cx="340.037" cy="52.9727" style="fill:#FDFD6C;stroke:#FDFD6C;stroke-width:1px;" rx="18.5" ry="6" transform="matrix(1.4248 0.468333 -0.468333 1.4248 -195.321 -171.927)"/><ellipse id="e7_ellipse" cx="382.8" cy="-72.7511" style="fill:#FDFD6C;stroke:#FDFD6C;stroke-width:1px;" rx="18.5" ry="6" transform="matrix(-0.31793 1.46571 -1.46571 -0.31793 568.544 -539.546)"/><ellipse id="e19_ellipse" cx="464.144" cy="334.188" style="fill:#FDFD6C;stroke:#FDFD6C;stroke-width:1px;" rx="42" ry="38" transform="matrix(1.38027 0 0 1.38027 -221.138 -58.7866)"/><ellipse id="e9_ellipse" cx="687.659" cy="-26.8518" style="fill:#FDFD6C;stroke:#FDFD6C;stroke-width:1px;" rx="10.1855" ry="6.60766" transform="matrix(-0.31793 1.46571 -1.46571 -0.31793 568.544 -539.546)"/><ellipse id="e10_ellipse" cx="712.216" cy="-77.2284" style="fill:#FDFD6C;stroke:#FDFD6C;stroke-width:1px;" rx="10.1855" ry="6.60766" transform="matrix(0.2246 1.48288 -1.48288 0.2246 182.475 -564.429)"/><ellipse id="e20_ellipse" cx="669.772" cy="337.858" style="fill:#FDFD6C;stroke:#FDFD6C;stroke-width:1px;" rx="96.9583" ry="30.8499" transform="matrix(1.04869 -0.463072 0.463072 1.04869 -251.387 272.057)"/><ellipse id="e11_ellipse" cx="427.949" cy="421.669" style="fill:#FDFD6C;stroke:#FDAF51;stroke-width:1px;" rx="94.4717" ry="36.3429" transform="matrix(0.161347 -1.13497 1.13497 0.161347 -214.424 712.015)"/><ellipse id="e21_ellipse" cx="604.021" cy="309.304" style="fill:#FFFFFF;stroke:#FFFFFF;stroke-width:1px;" rx="20" ry="12" transform="matrix(0.932251 -0.772497 0.867526 0.323742 -146.735 655.421)"/><text style="fill:black;font-family:Courier New;font-size:18.5px;font-style:normal;font-weight:bold;text-decoration:blink;" x="458.791" y="332.899" id="e22_texte" transform="matrix(1.05493 0 0 1.05493 -105.253 52.5766)">MIRACLE</text></svg>