<?xml version="1.0" standalone="no"?>
<!DOCTYPE svg PUBLIC "-//W3C//DTD SVG 20010904//EN"
 "http://www.w3.org/TR/2001/REC-SVG-20010904/DTD/svg10.dtd">
<svg version="1.0" xmlns="http://www.w3.org/2000/svg"
 width="513.000000pt" height="457.000000pt" viewBox="0 0 513.000000 457.000000"
 preserveAspectRatio="xMidYMid meet">
<metadata>
Created by potrace 1.15, written by Peter Selinger 2001-2017
</metadata>
<g transform="translate(0.000000,457.000000) scale(0.100000,-0.100000)"
fill="#000000" stroke="none">
<path d="M3425 4553 c-27 -2 -106 -10 -175 -19 -418 -51 -756 -178 -945 -356
-127 -118 -159 -202 -153 -397 3 -115 6 -132 34 -191 78 -166 285 -309 592
-410 210 -68 427 -105 705 -119 540 -28 1082 83 1381 283 114 76 189 154 232
241 l35 72 -3 159 c-3 151 -4 162 -31 215 -137 270 -604 470 -1211 519 -119 9
-342 11 -461 3z"/>
<path d="M1295 3409 c-380 -22 -763 -122 -980 -256 -138 -84 -219 -163 -271
-263 -29 -54 -29 -57 -29 -225 0 -159 2 -173 24 -219 61 -124 183 -228 376
-321 332 -159 782 -234 1253 -206 114 6 218 14 230 18 l22 5 0 723 0 722 -41
7 c-48 8 -368 26 -419 24 -19 0 -93 -4 -165 -9z"/>
<path d="M2170 3238 c-7 -18 -15 -90 -17 -159 -8 -194 24 -278 152 -397 188
-176 509 -298 945 -358 176 -25 606 -25 780 -1 554 77 942 261 1066 505 28 55
29 64 32 213 3 126 0 164 -13 195 l-16 38 -40 -62 c-146 -224 -543 -395 -1060
-458 -161 -20 -526 -22 -679 -5 -315 36 -561 103 -773 207 -150 75 -265 167
-328 265 -17 27 -32 49 -34 49 -2 0 -9 -15 -15 -32z"/>
<path d="M2169 2483 c-10 -25 -14 -87 -14 -188 0 -150 0 -151 33 -217 121
-246 537 -442 1082 -510 139 -17 623 -17 750 1 267 36 516 102 688 182 184 85
337 214 391 329 25 52 26 63 26 220 0 116 -4 174 -13 195 l-14 30 -20 -40
c-30 -59 -164 -184 -254 -237 -618 -363 -1809 -353 -2394 20 -86 55 -155 118
-196 180 -21 31 -41 61 -45 65 -4 5 -13 -8 -20 -30z"/>
<path d="M28 2105 c-9 -21 -13 -79 -13 -195 0 -161 1 -166 28 -223 118 -239
513 -430 1037 -502 172 -23 493 -31 681 -15 l159 13 0 220 0 219 -32 -6 c-89
-16 -368 -28 -506 -22 -434 18 -809 112 -1075 269 -83 49 -216 175 -245 232
l-20 40 -14 -30z"/>
<path d="M2166 1671 c-22 -74 -22 -258 0 -332 81 -273 516 -493 1115 -565 264
-31 695 -17 936 31 456 92 767 260 879 475 28 52 29 62 32 204 3 144 -8 236
-29 236 -5 0 -16 -15 -25 -32 -24 -47 -129 -154 -194 -198 -221 -151 -566
-255 -963 -291 -185 -17 -554 -6 -731 21 -271 41 -530 123 -699 220 -130 74
-199 137 -290 265 -14 19 -16 17 -31 -34z"/>
<path d="M21 1327 c-8 -28 -11 -95 -9 -188 3 -140 4 -147 35 -210 77 -155 286
-299 576 -394 267 -87 537 -126 882 -126 183 1 448 21 462 35 3 3 -5 31 -18
63 -19 48 -23 83 -27 207 l-4 148 -62 -6 c-33 -3 -164 -9 -291 -12 -177 -5
-265 -2 -383 10 -353 38 -631 118 -859 247 -89 51 -213 163 -249 225 -14 24
-29 44 -34 44 -4 0 -13 -19 -19 -43z"/>
<path d="M2170 938 c-7 -18 -15 -90 -17 -159 -8 -194 24 -278 152 -397 331
-310 1123 -457 1837 -341 486 79 839 260 955 488 27 53 28 64 31 212 3 125 0
164 -12 194 l-16 37 -41 -61 c-94 -141 -285 -262 -557 -351 -649 -212 -1553
-150 -2043 142 -88 53 -196 151 -239 218 -18 27 -33 50 -35 50 -2 0 -9 -15
-15 -32z"/>
</g>
</svg>
