<?xml version="1.0" standalone="no"?>
<!DOCTYPE svg PUBLIC "-//W3C//DTD SVG 20010904//EN"
 "http://www.w3.org/TR/2001/REC-SVG-20010904/DTD/svg10.dtd">
<svg version="1.0" xmlns="http://www.w3.org/2000/svg"
 width="100.000000pt" height="100.000000pt" viewBox="0 0 100.000000 100.000000"
 preserveAspectRatio="xMidYMid meet">
<metadata>
Created by potrace 1.15, written by Peter Selinger 2001-2017
</metadata>
<g transform="translate(0.000000,100.000000) scale(0.100000,-0.100000)"
fill="#000000" stroke="none">
<path d="M460 731 c-128 -42 -204 -168 -171 -286 10 -39 10 -41 -25 -72 -20
-17 -46 -33 -58 -35 -17 -2 -21 -10 -21 -38 l0 -35 60 -1 60 -1 -55 6 c-47 5
-55 9 -58 28 -2 17 6 26 35 39 21 10 44 26 51 36 16 21 35 23 51 4 6 -7 22
-11 36 -8 18 3 27 -1 32 -14 4 -11 13 -24 21 -30 25 -19 10 -48 -28 -55 l-35
-6 32 -2 c17 0 34 3 37 8 4 6 21 5 43 -1 78 -21 174 11 233 79 18 21 45 41 59
44 24 6 24 7 3 8 -20 1 -21 4 -15 29 5 15 8 48 8 75 0 47 13 63 22 28 4 -16 8
-18 23 -9 21 14 48 5 57 -19 4 -10 15 -24 25 -31 41 -30 15 -71 -46 -74 l-41
-1 37 -4 c85 -9 103 42 39 109 -29 29 -45 39 -60 35 -15 -4 -29 5 -51 29 -16
19 -30 39 -30 44 0 18 -64 82 -103 101 -44 23 -128 33 -167 20z m148 -27 c176
-73 176 -335 0 -408 -55 -23 -168 -20 -168 4 0 5 24 6 54 3 30 -3 69 0 90 7
79 26 136 105 135 185 -1 38 -1 37 -13 -18 -19 -90 -75 -148 -155 -162 -121
-20 -236 95 -216 216 25 144 199 205 310 108 38 -34 49 -26 12 9 -72 68 -201
68 -276 -1 -56 -51 -76 -151 -46 -224 18 -43 15 -50 -10 -23 -24 26 -32 124
-15 175 16 49 66 104 115 126 49 23 133 24 183 3z"/>
</g>
</svg>
