<?xml version="1.0" standalone="no"?>
<!DOCTYPE svg PUBLIC "-//W3C//DTD SVG 20010904//EN"
 "http://www.w3.org/TR/2001/REC-SVG-20010904/DTD/svg10.dtd">
<svg version="1.0" xmlns="http://www.w3.org/2000/svg"
 width="594.000000pt" height="980.000000pt" viewBox="0 0 594.000000 980.000000"
 preserveAspectRatio="xMidYMid meet">
<metadata>
Created by potrace 1.15, written by Peter Selinger 2001-2017
</metadata>
<g transform="translate(0.000000,980.000000) scale(0.100000,-0.100000)"
fill="#000000" stroke="none">
<path d="M2920 9766 c-30 -18 -147 -93 -260 -166 l-205 -133 -50 11 c-27 6
-129 30 -225 52 -96 23 -198 44 -225 47 l-51 5 -45 -53 c-33 -39 -326 -422
-333 -436 -1 0 -64 -9 -141 -18 -281 -33 -399 -53 -411 -70 -7 -9 -44 -132
-84 -273 -39 -141 -76 -270 -81 -287 -8 -25 -30 -41 -147 -104 -200 -109 -294
-166 -321 -195 l-25 -26 19 -193 c10 -105 20 -237 22 -292 4 -97 3 -102 -26
-150 -16 -27 -79 -108 -140 -178 -61 -70 -127 -148 -147 -172 l-36 -44 139
-268 c76 -147 139 -273 141 -279 2 -6 -33 -116 -77 -243 -45 -127 -83 -248
-87 -269 -5 -37 -4 -38 103 -133 59 -53 163 -143 230 -200 l122 -104 0 -120
c1 -119 16 -371 26 -431 5 -30 8 -32 292 -135 l287 -104 107 -250 108 -250
143 -6 c79 -4 221 -7 317 -8 l173 -1 200 -200 c110 -110 204 -200 209 -200 5
0 134 52 287 116 l279 116 257 -117 c141 -64 262 -115 269 -112 7 3 111 99
231 213 l219 207 136 -6 c75 -4 204 -10 286 -13 l150 -7 100 204 c55 112 118
240 140 283 l40 80 260 84 c143 46 261 85 263 87 1 1 9 92 18 201 8 109 21
251 30 314 14 110 16 116 46 140 89 69 327 272 356 302 l32 34 -35 125 c-20
68 -59 200 -86 292 l-50 168 87 151 c99 174 174 324 174 349 0 9 -81 122 -181
251 l-181 233 6 50 c2 28 16 127 30 220 14 94 26 199 26 235 l0 65 -116 74
c-64 40 -180 112 -258 158 -77 47 -142 87 -144 88 -2 2 -19 74 -38 162 -36
163 -55 241 -80 330 l-15 52 -67 15 c-37 8 -170 33 -297 56 -139 25 -236 46
-246 56 -9 8 -63 83 -120 167 -129 191 -189 266 -214 273 -11 2 -135 -18 -277
-45 -141 -28 -269 -52 -285 -53 -35 -2 -57 11 -278 162 -93 65 -181 125 -195
133 -25 16 -28 15 -80 -17z m271 -837 c480 -49 920 -259 1264 -604 494 -493
701 -1165 575 -1865 -53 -290 -188 -614 -345 -822 -73 -97 -247 -281 -364
-385 -394 -351 -1007 -540 -1561 -483 -290 30 -602 134 -849 283 -272 163
-570 465 -739 748 -206 344 -300 761 -271 1208 17 280 73 488 198 746 248 509
647 866 1186 1062 283 104 604 143 906 112z"/>
<path d="M2783 8720 c-343 -36 -672 -170 -958 -389 -202 -155 -411 -405 -521
-624 -259 -515 -266 -1141 -19 -1664 279 -589 852 -991 1516 -1064 424 -47
930 92 1275 349 114 85 341 312 426 426 261 350 400 870 348 1296 -107 864
-746 1527 -1595 1655 -125 19 -364 26 -472 15z m245 -307 c11 -16 126 -206
257 -423 131 -217 238 -396 239 -397 6 -7 245 -66 595 -147 217 -50 396 -96
398 -102 5 -15 -158 -215 -405 -497 -119 -137 -223 -263 -231 -280 -15 -37
-16 -28 35 -610 19 -219 34 -403 34 -409 0 -16 -34 -4 -262 91 -117 49 -311
130 -430 180 -120 50 -231 91 -248 91 -39 0 -195 -59 -509 -190 -241 -101
-421 -170 -443 -170 -15 0 -5 184 37 637 l35 373 -298 341 c-311 357 -372 434
-356 448 5 4 162 43 349 86 332 75 562 134 618 156 22 9 67 78 214 323 234
389 323 526 344 526 4 0 16 -12 27 -27z"/>
<path d="M1413 4129 c-17 -5 -34 -17 -37 -27 -3 -9 -82 -363 -176 -787 -94
-423 -275 -1233 -401 -1799 -126 -566 -229 -1035 -227 -1042 2 -9 85 19 273
92 363 142 781 303 828 320 l38 13 82 -72 c45 -40 252 -240 459 -446 208 -206
380 -372 383 -369 11 11 258 1109 570 2537 216 987 256 1181 250 1191 -16 26
-425 230 -461 230 -8 0 -141 -52 -296 -116 l-282 -115 -200 200 -201 201 -285
-1 c-157 0 -299 -5 -317 -10z"/>
<path d="M3784 3978 c-82 -89 -157 -172 -167 -185 -12 -15 -104 -411 -296
-1274 l-278 -1251 17 -77 c10 -42 73 -321 140 -621 67 -300 126 -549 130 -554
5 -4 185 164 400 375 216 211 423 412 461 446 l69 62 67 -25 c38 -14 235 -90
438 -169 396 -154 612 -231 621 -222 3 3 -11 81 -31 174 -116 530 -744 3350
-767 3440 l-10 43 -322 0 -323 0 -149 -162z"/>
</g>
</svg>
