<?xml version="1.0" encoding="utf-8"?>
<!-- Svg Vector Icons : http://www.onlinewebfonts.com/icon -->
<!DOCTYPE svg PUBLIC "-//W3C//DTD SVG 1.1//EN" "http://www.w3.org/Graphics/SVG/1.1/DTD/svg11.dtd">
<svg version="1.1" xmlns="http://www.w3.org/2000/svg" xmlns:xlink="http://www.w3.org/1999/xlink" x="0px" y="0px" viewBox="0 0 1000 1000" enable-background="new 0 0 1000 1000" xml:space="preserve">
<metadata> Svg Vector Icons : http://www.onlinewebfonts.com/icon </metadata>
<g><g><g><g><path d="M501,10C230.8,10,10,230.8,10,501s220.8,489,491,489s489-218.7,489-489S771.3,10,501,10z M501,901.3c-220.8,0-400.3-179.5-400.3-400.3c0-220.8,179.5-400.3,400.3-400.3c220.8,0,400.3,179.5,400.3,400.3C901.3,721.8,721.8,901.3,501,901.3z"/><path d="M496.9,193.6c-165.1,0-202.2,121.7-202.2,169.2c0,24.8,20.6,43.3,45.4,43.3c24.8,0,45.4-18.6,45.4-43.3c0-18.6,10.3-80.5,111.4-80.5c49.5,0,86.7,14.4,109.3,39.2c28.9,30.9,26.8,72.2,24.8,88.7c-6.2,47.5-30.9,72.2-78.4,72.2c-82.5,0-101.1,45.4-101.1,82.5v37.1c0,24.8,20.6,45.4,45.4,45.4c24.8,0,45.4-20.6,45.4-45.4v-28.9c2.1,0,6.2-2.1,10.3-2.1c72.2,0,154.7-39.2,167.1-150.6c6.2-59.8-8.3-117.6-45.4-158.9C647.5,230.8,591.8,193.6,496.9,193.6z"/><path d="M496.9,692.9c-30.9,0-55.7,24.8-55.7,55.7c0,30.9,24.8,55.7,55.7,55.7c30.9,0,55.7-24.8,55.7-55.7C552.6,717.7,527.9,692.9,496.9,692.9z"/></g></g></g><g></g><g></g><g></g><g></g><g></g><g></g><g></g><g></g><g></g><g></g><g></g><g></g><g></g><g></g><g></g></g>
</svg>