<?xml version="1.0" standalone="no"?>
<!DOCTYPE svg PUBLIC "-//W3C//DTD SVG 20010904//EN"
 "http://www.w3.org/TR/2001/REC-SVG-20010904/DTD/svg10.dtd">
<svg version="1.0" xmlns="http://www.w3.org/2000/svg"
 width="512.000000pt" height="512.000000pt" viewBox="0 0 512.000000 512.000000"
 preserveAspectRatio="xMidYMid meet">
<metadata>
Created by potrace 1.15, written by Peter Selinger 2001-2017
</metadata>
<g transform="translate(0.000000,512.000000) scale(0.100000,-0.100000)"
fill="#000000" stroke="none">
<path d="M0 2560 l0 -2560 2560 0 2560 0 0 2560 0 2560 -2560 0 -2560 0 0
-2560z m2886 2357 c12 -3 39 -8 60 -11 37 -6 61 -10 112 -21 12 -3 32 -7 45
-10 22 -5 77 -18 102 -24 3 0 7 -1 10 -1 2 -1 20 -7 39 -15 18 -8 36 -11 40
-8 3 4 6 1 6 -6 0 -7 4 -10 9 -7 5 4 22 1 38 -6 15 -6 31 -11 36 -10 4 1 7 -2
7 -6 0 -4 10 -9 22 -9 13 -1 24 -7 26 -13 2 -5 8 -8 13 -4 5 3 9 1 9 -5 0 -6
6 -8 14 -5 7 3 20 -2 29 -10 8 -8 17 -12 21 -9 3 4 6 1 6 -6 0 -7 5 -9 10 -6
6 3 10 2 10 -4 0 -6 7 -8 15 -5 8 4 15 1 15 -6 0 -6 5 -8 10 -5 6 3 10 1 10
-5 0 -6 5 -8 10 -5 6 3 10 1 10 -6 0 -7 3 -9 7 -6 3 4 12 -1 20 -11 8 -9 11
-11 8 -4 -5 9 8 6 34 -7 23 -12 41 -27 41 -33 0 -6 3 -8 7 -5 3 4 12 -1 20
-11 8 -9 12 -11 8 -4 -11 21 5 13 32 -15 15 -16 23 -21 19 -13 -4 8 2 4 14
-10 12 -14 19 -19 15 -12 -27 51 263 -176 400 -313 134 -134 347 -405 318
-405 -4 0 1 -6 10 -12 9 -7 17 -19 19 -27 2 -8 11 -23 21 -33 10 -10 15 -23
12 -28 -4 -6 -1 -10 4 -10 28 0 194 -389 216 -507 2 -10 4 -19 5 -20 2 -2 3
-6 4 -10 8 -32 17 -72 21 -90 3 -13 7 -33 10 -45 36 -167 40 -221 40 -498 0
-225 -4 -310 -19 -385 -2 -11 -6 -36 -10 -55 -3 -19 -8 -45 -11 -58 -3 -12 -7
-32 -10 -45 -4 -18 -13 -58 -21 -89 -1 -5 -2 -9 -4 -10 -1 -2 -3 -11 -5 -21
-22 -118 -188 -507 -216 -507 -5 0 -8 -4 -4 -10 3 -5 -2 -18 -12 -28 -10 -10
-19 -25 -21 -33 -2 -8 -10 -20 -19 -26 -9 -7 -14 -13 -10 -13 29 0 -184 -271
-318 -405 -138 -138 -425 -363 -401 -313 4 7 0 3 -9 -9 -16 -21 -51 -22 -38 0
3 6 1 7 -6 3 -9 -6 -9 -11 1 -24 8 -9 8 -13 2 -9 -7 4 -14 0 -18 -8 -3 -9 -12
-12 -22 -8 -13 5 -15 3 -9 -7 5 -9 4 -11 -3 -6 -7 4 -12 3 -12 -3 0 -6 -18
-20 -41 -32 -26 -13 -39 -16 -34 -7 3 7 0 5 -8 -4 -8 -10 -17 -15 -20 -11 -4
3 -7 1 -7 -6 0 -7 -4 -9 -10 -6 -5 3 -10 1 -10 -5 0 -6 -4 -8 -10 -5 -5 3 -10
1 -10 -5 0 -7 -7 -10 -15 -6 -8 3 -15 1 -15 -5 0 -6 -4 -7 -10 -4 -5 3 -10 1
-10 -5 0 -6 -4 -8 -10 -5 -5 3 -10 1 -10 -5 0 -6 -4 -8 -10 -5 -5 3 -10 1 -10
-5 0 -7 -7 -10 -15 -6 -8 3 -15 1 -15 -5 0 -6 -4 -8 -9 -5 -5 4 -11 1 -13 -4
-2 -6 -13 -12 -26 -13 -12 0 -22 -6 -22 -11 0 -5 -3 -6 -7 -3 -3 4 -12 2 -18
-3 -7 -6 -24 -11 -39 -12 -14 -1 -26 -7 -26 -12 0 -5 -3 -7 -6 -3 -4 3 -22 0
-40 -8 -19 -8 -34 -11 -34 -8 0 3 -7 -1 -17 -8 -9 -8 -18 -13 -20 -11 -2 2
-16 1 -31 -2 -15 -4 -37 -9 -49 -11 -13 -3 -33 -7 -45 -10 -167 -36 -221 -40
-498 -40 -225 0 -310 4 -385 19 -11 2 -36 6 -55 10 -19 3 -46 9 -60 12 -14 3
-36 7 -50 10 -14 3 -39 9 -56 15 -17 5 -40 11 -50 13 -10 3 -31 9 -45 14 -15
6 -30 8 -33 5 -3 -4 -6 -1 -6 5 0 7 -3 11 -7 10 -15 -4 -83 13 -83 20 0 4 -10
9 -22 9 -13 1 -24 7 -26 13 -2 5 -8 8 -13 4 -5 -3 -9 -1 -9 5 0 6 -7 8 -15 5
-8 -4 -15 -1 -15 6 0 6 -5 8 -10 5 -6 -3 -10 -1 -10 5 0 6 -5 8 -10 5 -6 -3
-10 -1 -10 5 0 6 -4 8 -10 5 -5 -3 -10 -2 -10 4 0 6 -7 8 -15 5 -8 -4 -15 -1
-15 6 0 6 -5 8 -10 5 -6 -3 -10 -1 -10 5 0 6 -4 8 -10 5 -5 -3 -10 -1 -10 6 0
7 -3 9 -7 6 -3 -4 -12 1 -20 11 -8 9 -11 11 -8 4 5 -9 -8 -6 -34 7 -23 12 -41
26 -41 32 0 6 -5 7 -12 3 -7 -5 -8 -3 -3 6 6 10 4 12 -9 7 -10 -4 -19 -1 -22
8 -4 8 -11 12 -18 8 -6 -4 -6 0 2 9 10 13 10 18 1 24 -7 4 -9 3 -6 -3 13 -22
-22 -21 -38 0 -9 12 -13 15 -8 7 9 -19 -44 13 -68 41 -9 10 -18 16 -21 14 -10
-10 -213 159 -318 265 -131 132 -341 400 -313 400 4 0 -1 6 -10 12 -9 7 -17
19 -19 27 -2 8 -11 23 -21 33 -10 10 -15 23 -12 28 4 6 1 10 -4 10 -28 0 -193
389 -216 508 -2 9 -4 18 -5 20 -2 1 -3 5 -4 10 -8 31 -17 71 -21 90 -3 12 -7
32 -10 45 -36 166 -40 220 -40 497 0 277 4 331 40 498 3 12 7 32 10 45 4 18
13 58 21 90 1 4 2 8 4 10 1 1 3 10 5 20 22 118 188 507 216 507 5 0 8 4 4 10
-3 5 2 18 12 28 10 10 19 25 21 33 2 8 10 20 19 27 9 6 14 12 10 12 -29 0 184
271 318 405 138 138 425 363 401 313 -4 -7 0 -3 9 9 16 21 51 22 38 0 -3 -6
-1 -7 6 -3 9 6 9 11 -1 24 -8 9 -8 13 -2 9 7 -4 14 0 18 8 3 9 12 12 22 8 13
-5 15 -3 9 7 -5 9 -4 11 3 6 7 -4 12 -3 12 3 0 6 18 20 41 32 26 13 39 16 34
7 -3 -7 0 -5 8 4 8 10 17 15 20 11 4 -3 7 -1 7 6 0 7 5 9 10 6 6 -3 10 -1 10
5 0 6 5 8 10 5 6 -3 10 -1 10 5 0 7 7 10 15 6 8 -3 15 -1 15 5 0 6 5 7 10 4 6
-3 10 -1 10 5 0 6 5 8 10 5 6 -3 10 -1 10 5 0 6 5 8 10 5 6 -3 10 -1 10 5 0 7
7 10 15 6 8 -3 15 -1 15 5 0 6 4 8 9 5 5 -4 11 -1 13 4 2 6 13 12 26 13 12 0
22 4 22 7 0 9 72 30 82 24 4 -3 8 0 8 7 0 7 3 10 6 6 3 -3 18 -1 33 5 14 5 35
11 45 14 10 2 33 8 50 13 17 6 42 12 56 15 14 3 36 7 50 10 82 18 126 25 190
32 30 4 57 9 60 11 7 7 550 -3 576 -10z"/>
<path d="M516 3759 c7 -13 -16 -50 -26 -44 -6 4 -7 -1 -3 -11 5 -13 3 -15 -7
-9 -8 5 -11 4 -7 -3 10 -15 -3 -43 -16 -35 -6 3 -7 1 -3 -5 4 -6 -7 -38 -23
-71 -85 -167 -162 -408 -203 -636 -20 -104 -22 -155 -22 -385 0 -230 2 -281
22 -385 41 -228 118 -469 203 -636 16 -33 27 -65 23 -71 -4 -6 -3 -8 3 -5 13
8 26 -20 16 -35 -4 -7 -1 -8 7 -3 10 6 12 4 7 -9 -4 -10 -3 -15 3 -11 10 6 33
-31 26 -44 -3 -4 1 -8 8 -8 8 0 -11 47 -50 121 -193 373 -274 730 -261 1166
10 367 92 680 261 1006 39 74 58 121 50 121 -7 0 -11 -4 -8 -8z"/>
<path d="M4646 3646 c180 -346 264 -693 264 -1086 0 -236 -23 -409 -85 -634
-81 -294 -235 -594 -430 -836 -37 -47 -59 -77 -48 -67 11 9 22 15 25 12 2 -3
15 7 29 22 13 15 16 21 7 14 -10 -7 -18 -9 -18 -3 0 12 25 34 32 27 3 -3 11 2
19 12 12 14 12 15 0 9 -9 -6 -12 -5 -9 5 3 8 10 13 16 12 5 -1 16 5 24 14 11
14 11 16 -1 9 -9 -6 -12 -4 -9 5 3 8 11 14 19 14 8 0 14 9 14 20 0 11 5 20 12
20 6 0 15 4 20 9 5 5 2 6 -6 1 -9 -5 -12 -3 -9 6 3 8 10 14 15 14 6 0 15 4 20
9 5 5 2 6 -6 1 -9 -5 -12 -3 -9 6 3 8 10 13 16 12 5 -1 9 5 8 15 0 9 5 16 12
14 8 -1 11 2 7 8 -9 14 14 52 27 44 7 -4 8 -3 4 4 -9 15 24 73 37 65 6 -3 7
-1 4 5 -10 15 3 43 16 35 6 -3 7 -1 3 5 -4 6 7 38 23 71 85 167 162 408 203
636 20 104 22 155 22 385 0 230 -2 281 -22 385 -41 228 -118 469 -203 636 -16
33 -27 65 -23 71 4 6 3 8 -3 5 -13 -8 -26 20 -16 35 4 7 1 8 -7 3 -10 -6 -12
-4 -7 9 4 10 3 15 -3 11 -10 -6 -33 31 -26 44 3 4 -1 8 -8 8 -8 0 11 -47 50
-121z"/>
</g>
</svg>
