<?xml version="1.0" standalone="no"?>
<!DOCTYPE svg PUBLIC "-//W3C//DTD SVG 20010904//EN"
 "http://www.w3.org/TR/2001/REC-SVG-20010904/DTD/svg10.dtd">
<svg version="1.0" xmlns="http://www.w3.org/2000/svg"
 width="1200.000000pt" height="1200.000000pt" viewBox="0 0 1200.000000 1200.000000"
 preserveAspectRatio="xMidYMid meet">

<g transform="translate(0.000000,1200.000000) scale(0.100000,-0.100000)"
fill="#000000" stroke="none">
<path d="M5020 11347 c-31 -11 -35 -17 -38 -50 l-3 -38 25 16 c35 23 69 16 80
-16 11 -31 -10 -78 -75 -165 -25 -34 -39 -63 -37 -77 3 -21 8 -22 106 -23
l102 -2 0 34 0 34 -55 0 -55 0 44 54 c57 70 72 115 57 168 -8 26 -23 45 -44
58 -36 23 -57 24 -107 7z"/>
<path d="M5368 11343 c-34 -13 -38 -19 -38 -50 0 -33 1 -34 22 -19 50 35 96 5
83 -54 -3 -16 -31 -63 -61 -105 -35 -48 -54 -85 -52 -98 3 -21 9 -22 106 -25
l102 -3 0 36 0 35 -56 0 -56 0 41 49 c43 52 71 107 71 141 0 34 -28 79 -60 95
-36 19 -55 18 -102 -2z"/>
<path d="M3599 11323 c-22 -58 -109 -316 -109 -324 0 -5 9 -9 19 -9 14 0 24
13 36 50 l17 51 61 -3 62 -3 13 -40 c16 -48 26 -60 46 -52 13 5 7 31 -38 164
-30 87 -57 166 -61 176 -11 26 -34 21 -46 -10z m65 -170 c7 -22 4 -23 -38 -23
-25 0 -46 3 -46 8 0 8 27 99 36 122 6 14 20 -19 48 -107z"/>
<path d="M4012 11173 c3 -160 5 -178 21 -181 16 -3 17 11 17 177 0 175 -1 181
-20 181 -20 0 -20 -5 -18 -177z"/>
<path d="M5667 11342 c-3 -4 -4 -84 -4 -177 l2 -170 34 -3 c19 -2 37 1 40 7 5
8 16 7 37 -1 43 -16 81 -3 105 35 29 47 23 155 -11 192 -26 27 -86 35 -108 13
-9 -9 -12 2 -12 50 l0 62 -39 0 c-22 0 -42 -3 -44 -8z m132 -156 c32 -39 19
-136 -18 -136 -24 0 -31 19 -31 79 0 61 23 88 49 57z"/>
<path d="M5940 11325 c0 -14 0 -28 0 -31 0 -4 18 -8 40 -8 39 -2 40 -1 40 31
0 32 -1 33 -40 33 -36 0 -40 -2 -40 -25z"/>
<path d="M6072 11173 l3 -178 40 0 40 0 3 178 2 177 -45 0 -45 0 2 -177z"/>
<path d="M6202 11173 l3 -178 40 0 40 0 3 178 2 177 -45 0 -45 0 2 -177z"/>
<path d="M6332 11318 c2 -18 6 -32 11 -30 4 1 23 2 42 2 32 0 35 2 35 30 0 29
-2 30 -46 30 -45 0 -45 0 -42 -32z"/>
<path d="M8142 11173 l3 -178 40 0 40 0 3 178 2 177 -45 0 -45 0 2 -177z"/>
<path d="M3800 11286 c0 -29 -4 -36 -20 -36 -11 0 -20 -7 -20 -15 0 -8 9 -15
20 -15 19 0 20 -7 20 -110 0 -92 3 -112 16 -117 26 -10 34 17 34 125 0 82 3
102 14 102 26 0 28 20 4 29 -17 6 -23 16 -23 37 -1 22 -6 30 -23 32 -19 3 -22
-1 -22 -32z"/>
<path d="M4780 11285 c0 -28 -4 -35 -20 -35 -11 0 -20 -7 -20 -15 0 -8 9 -15
20 -15 18 0 20 -8 22 -112 3 -105 4 -113 23 -113 19 0 20 8 23 113 2 104 4
112 22 112 11 0 20 7 20 15 0 8 -9 15 -20 15 -16 0 -20 7 -20 35 0 31 -3 35
-25 35 -22 0 -25 -4 -25 -35z"/>
<path d="M6522 11244 c-49 -25 -68 -72 -64 -157 1 -18 15 -42 36 -63 29 -29
41 -34 80 -34 58 0 103 37 116 95 9 40 8 57 -12 107 -20 54 -99 80 -156 52z
m72 -60 c30 -30 15 -134 -19 -134 -34 0 -49 104 -19 134 8 9 17 16 19 16 2 0
11 -7 19 -16z"/>
<path d="M7663 11246 c-62 -28 -88 -105 -59 -179 19 -51 58 -77 113 -77 71 0
113 52 113 140 0 43 -5 55 -32 85 -39 40 -88 52 -135 31z m83 -107 c7 -45 -10
-89 -35 -89 -23 0 -31 19 -31 75 0 53 24 85 47 63 7 -8 16 -30 19 -49z"/>
<path d="M4147 11239 c-42 -25 -62 -134 -35 -194 14 -31 56 -55 95 -55 33 0
73 25 73 45 0 12 -5 12 -33 0 -44 -18 -74 -9 -92 26 -27 51 -22 58 53 61 l67
3 -1 42 c-1 56 -25 83 -73 83 -20 0 -44 -5 -54 -11z m81 -31 c7 -7 12 -20 12
-30 0 -15 -9 -18 -50 -18 l-51 0 16 30 c16 32 51 40 73 18z"/>
<path d="M4349 11224 c-21 -23 -24 -35 -24 -106 0 -75 2 -81 28 -104 32 -27
78 -31 101 -9 18 19 26 19 26 1 0 -8 8 -13 18 -12 15 3 17 18 20 129 2 122 2
127 -18 127 -11 0 -20 -7 -20 -16 0 -14 -2 -14 -22 0 -35 24 -81 20 -109 -10z
m107 -29 c17 -26 22 -95 10 -133 -19 -59 -89 -43 -102 23 -18 99 47 178 92
110z"/>
<path d="M4588 11233 c-41 -48 -26 -94 44 -129 92 -47 44 -107 -54 -69 -13 5
-18 2 -18 -9 0 -41 103 -50 138 -13 42 45 24 99 -44 129 -39 17 -45 23 -42 46
3 25 6 27 51 25 34 -2 47 1 47 11 0 30 -97 37 -122 9z"/>
<path d="M5940 11120 l0 -130 40 0 40 0 0 130 0 130 -40 0 -40 0 0 -130z"/>
<path d="M6334 11237 c-2 -7 -3 -65 -2 -128 l3 -114 40 0 40 0 3 128 3 127
-41 0 c-24 0 -43 -5 -46 -13z"/>
<path d="M6732 11123 l3 -128 40 0 40 0 3 75 c3 100 8 120 32 120 18 0 20 -9
22 -97 l3 -98 43 -3 42 -3 0 110 c0 98 -2 113 -20 131 -22 22 -70 26 -103 9
-16 -9 -22 -9 -25 0 -2 6 -21 11 -43 11 l-40 0 3 -127z"/>
<path d="M7100 11064 l0 -185 42 3 43 3 1 60 c2 74 1 72 16 57 23 -23 74 -14
101 18 68 80 33 230 -53 230 -17 0 -40 -5 -51 -10 -13 -7 -19 -7 -19 0 0 5
-18 10 -40 10 l-40 0 0 -186z m134 120 c16 -16 22 -87 10 -118 -10 -26 -43
-19 -55 12 -13 33 -5 102 13 113 17 11 14 12 32 -7z"/>
<path d="M7400 11222 c-49 -49 -52 -145 -7 -198 27 -31 92 -42 137 -24 24 10
30 19 30 42 0 25 -2 27 -19 18 -43 -23 -91 -6 -91 32 0 15 9 18 55 18 l55 0 0
44 c0 64 -28 96 -86 96 -37 0 -51 -6 -74 -28z m100 -59 c0 -7 -11 -13 -25 -13
-28 0 -34 27 -13 48 10 10 15 9 25 -5 7 -9 13 -23 13 -30z"/>
<path d="M7870 11065 l0 -185 40 0 40 0 0 65 c0 60 9 80 25 55 11 -18 63 -10
91 13 23 20 28 34 32 85 5 74 -1 100 -28 130 -23 25 -87 31 -108 10 -9 -9 -12
-9 -12 0 0 7 -16 12 -40 12 l-40 0 0 -185z m144 102 c18 -67 -6 -132 -41 -111
-25 15 -31 105 -8 127 19 20 41 13 49 -16z"/>
<path d="M8300 11222 c-49 -49 -52 -145 -7 -198 27 -31 92 -42 137 -24 24 10
30 19 30 42 0 25 -2 27 -19 18 -43 -23 -91 -6 -91 32 0 15 9 18 55 18 l55 0 0
45 c0 62 -32 95 -90 95 -32 0 -48 -6 -70 -28z m100 -59 c0 -7 -11 -13 -25 -13
-28 0 -34 27 -13 48 10 10 15 9 25 -5 7 -9 13 -23 13 -30z"/>
<path d="M5220 11030 c0 -39 1 -40 35 -40 34 0 35 1 35 40 0 39 -1 40 -35 40
-34 0 -35 -1 -35 -40z"/>
<path d="M2172 10643 l3 -178 40 0 40 0 5 89 c4 69 9 91 22 100 27 17 33 0 35
-97 l2 -92 40 -3 41 -3 0 108 c0 129 -11 153 -66 153 -20 0 -44 -5 -55 -10
-18 -10 -19 -7 -19 50 l0 60 -45 0 -45 0 2 -177z"/>
<path d="M3502 10788 c3 -31 5 -33 43 -33 38 0 40 2 43 33 3 32 3 32 -43 32
-46 0 -46 0 -43 -32z"/>
<path d="M3842 10788 c3 -31 5 -33 43 -32 38 0 40 2 43 32 3 32 3 32 -43 32
-46 0 -46 0 -43 -32z"/>
<path d="M4610 10785 c0 -34 1 -35 40 -35 39 0 40 1 40 35 0 34 -1 35 -40 35
-39 0 -40 -1 -40 -35z"/>
<path d="M5702 10788 c3 -31 5 -33 43 -33 38 0 40 2 43 33 3 32 3 32 -43 32
-46 0 -46 0 -43 -32z"/>
<path d="M7722 10643 l3 -178 38 -3 c29 -3 37 0 37 13 0 15 2 15 22 1 70 -49
138 11 138 122 0 70 -32 116 -84 120 -20 2 -44 -2 -52 -9 -12 -10 -14 -2 -14
50 l0 61 -45 0 -45 0 2 -177z m149 -20 c3 -16 2 -44 -1 -63 -4 -29 -9 -35 -30
-35 -23 0 -25 4 -28 58 -3 66 9 92 38 77 10 -5 19 -22 21 -37z"/>
<path d="M8000 10640 l0 -180 40 0 40 0 0 180 0 180 -40 0 -40 0 0 -180z"/>
<path d="M8132 10788 c3 -30 6 -33 41 -36 36 -3 37 -3 37 32 0 35 -1 36 -41
36 -39 0 -40 -1 -37 -32z"/>
<path d="M8680 10758 c0 -48 -3 -59 -12 -50 -7 7 -28 12 -48 12 -67 0 -107
-76 -90 -172 13 -69 76 -107 130 -78 13 7 21 7 25 0 3 -5 22 -10 41 -10 l34 0
0 180 0 180 -40 0 -40 0 0 -62z m-4 -123 c18 -70 -20 -144 -52 -101 -19 26
-18 95 2 117 19 22 42 14 50 -16z"/>
<path d="M6950 10755 c0 -28 -4 -35 -20 -35 -14 0 -20 -7 -20 -24 0 -15 7 -26
20 -29 18 -5 20 -14 20 -106 l0 -101 40 0 40 0 0 105 c0 98 1 105 20 105 15 0
20 7 20 25 0 18 -5 25 -20 25 -16 0 -20 7 -20 35 0 34 -1 35 -40 35 -39 0 -40
-1 -40 -35z"/>
<path d="M3683 10723 c-35 -7 -66 -52 -59 -87 8 -39 31 -63 72 -76 35 -12 45
-36 20 -46 -7 -3 -30 1 -49 10 -31 13 -36 13 -41 -1 -16 -41 15 -63 89 -63
107 0 129 117 30 161 -61 27 -62 54 -1 46 38 -6 45 -4 49 13 8 30 -55 54 -110
43z"/>
<path d="M4055 10723 c-64 -17 -104 -88 -90 -161 13 -69 52 -102 123 -102 70
0 112 52 112 140 0 43 -5 55 -32 84 -33 34 -74 49 -113 39z m61 -114 c7 -45
-10 -89 -35 -89 -24 0 -31 19 -31 80 0 82 53 89 66 9z"/>
<path d="M7261 10717 c-50 -18 -75 -57 -75 -120 -1 -87 40 -137 114 -137 74 0
120 53 120 138 0 58 -25 97 -76 118 -39 16 -39 16 -83 1z m75 -108 c7 -45 -10
-89 -35 -89 -24 0 -31 19 -31 80 0 82 53 89 66 9z"/>
<path d="M9364 10723 c-48 -9 -71 -72 -46 -120 7 -12 30 -29 52 -39 67 -30 45
-69 -23 -41 -34 15 -35 14 -41 -6 -3 -12 -6 -25 -6 -28 0 -13 53 -29 96 -29
112 0 129 124 23 167 -21 8 -39 21 -39 29 0 16 42 19 70 4 15 -8 19 -5 25 17
6 27 -6 42 -35 43 -8 0 -24 2 -35 4 -11 2 -30 2 -41 -1z"/>
<path d="M9574 10723 c-35 -7 -58 -40 -57 -81 1 -39 26 -67 76 -84 29 -11 36
-35 13 -44 -7 -3 -30 1 -49 9 -34 15 -35 14 -41 -6 -8 -32 -8 -33 19 -45 36
-17 107 -15 132 3 27 19 39 75 23 105 -6 12 -32 31 -56 41 -61 27 -61 54 0 46
38 -5 45 -4 49 13 3 11 0 23 -7 28 -14 12 -74 20 -102 15z"/>
<path d="M2476 10704 c-29 -29 -38 -56 -38 -116 0 -94 54 -147 122 -121 18 7
32 7 36 2 3 -5 21 -9 40 -9 l34 0 0 130 0 130 -40 0 c-24 0 -40 -5 -40 -12 0
-9 -3 -9 -12 0 -17 17 -84 15 -102 -4z m98 -50 c16 -16 22 -87 10 -118 -9 -23
-41 -20 -55 5 -14 27 -6 109 12 120 18 11 15 12 33 -7z"/>
<path d="M2729 10608 c55 -159 49 -150 85 -146 30 3 32 6 73 123 23 66 42 123
42 128 1 4 -16 7 -38 7 l-38 0 -18 -65 c-9 -36 -20 -63 -24 -60 -3 4 -13 32
-22 63 -15 57 -16 57 -57 60 l-41 3 38 -113z"/>
<path d="M2987 10709 c-43 -25 -63 -126 -37 -189 21 -52 91 -74 154 -50 21 7
26 16 26 42 0 25 -3 29 -12 20 -7 -7 -26 -12 -43 -12 -35 0 -55 15 -55 42 0
15 9 18 61 18 l62 0 -6 46 c-7 62 -38 94 -91 94 -23 0 -49 -5 -59 -11z m83
-70 c0 -14 -7 -19 -25 -19 -27 0 -35 26 -13 48 15 15 38 -3 38 -29z"/>
<path d="M3284 10593 l43 -128 34 0 34 0 42 120 c23 66 42 123 42 128 1 4 -16
7 -38 7 l-38 0 -18 -65 c-9 -36 -20 -63 -24 -60 -3 4 -13 32 -22 63 -15 57
-16 57 -57 60 l-41 3 43 -128z"/>
<path d="M3502 10593 l3 -128 40 0 40 0 3 128 3 127 -46 0 -46 0 3 -127z"/>
<path d="M3842 10593 l3 -128 40 0 40 0 3 128 3 127 -46 0 -46 0 3 -127z"/>
<path d="M4240 10590 l0 -130 40 0 40 0 0 83 c0 89 14 125 44 114 13 -5 16
-23 16 -102 l0 -96 43 3 42 3 0 106 c0 91 -3 110 -19 128 -23 26 -81 28 -108
4 -17 -15 -18 -15 -18 0 0 13 -9 17 -40 17 l-40 0 0 -130z"/>
<path d="M4610 10590 l0 -130 40 0 40 0 0 130 0 130 -40 0 -40 0 0 -130z"/>
<path d="M4740 10590 l0 -130 39 0 39 0 4 90 c3 91 14 118 42 107 13 -5 16
-24 16 -102 l0 -96 43 3 42 3 5 95 c5 87 7 95 25 95 18 0 20 -8 25 -95 l5 -95
40 0 40 0 3 90 c3 101 -1 126 -24 149 -20 21 -83 20 -106 -1 -17 -15 -19 -15
-36 0 -10 10 -34 17 -52 17 -18 0 -42 -7 -52 -17 -17 -15 -18 -15 -18 0 0 13
-9 17 -40 17 l-40 0 0 -130z"/>
<path d="M5152 10538 l3 -183 43 -3 42 -3 0 65 0 64 30 -11 c67 -25 120 31
120 129 0 72 -32 118 -84 122 -21 2 -44 -3 -53 -10 -13 -10 -17 -10 -20 0 -3
7 -21 12 -44 12 l-39 0 2 -182z m149 88 c5 -16 5 -45 1 -65 -7 -30 -12 -36
-32 -36 -23 0 -25 4 -28 54 -4 67 2 83 30 79 14 -2 24 -13 29 -32z"/>
<path d="M5445 10688 c-25 -30 -27 -37 -23 -106 3 -66 6 -77 31 -98 30 -25 66
-31 97 -14 13 7 21 7 25 0 4 -6 22 -9 41 -8 l34 2 0 128 0 128 -40 0 c-24 0
-40 -5 -40 -12 0 -9 -3 -9 -12 0 -7 7 -29 12 -49 12 -30 0 -43 -7 -64 -32z
m121 -53 c18 -71 -20 -143 -52 -100 -19 24 -14 113 6 125 19 12 39 1 46 -25z"/>
<path d="M5702 10593 l3 -128 40 0 40 0 3 128 3 127 -46 0 -46 0 3 -127z"/>
<path d="M5832 10593 l3 -128 40 0 40 0 3 80 c3 83 12 105 43 105 15 0 19 7
19 35 0 27 -4 35 -18 35 -10 0 -23 -5 -29 -11 -8 -8 -13 -8 -17 0 -4 6 -25 11
-47 11 l-40 0 3 -127z"/>
<path d="M6009 10716 c-2 -2 -3 -61 -1 -130 l3 -126 39 0 39 0 3 91 c2 75 6
94 21 103 28 17 37 -8 37 -106 l0 -88 40 0 40 0 0 83 c0 89 14 125 44 114 13
-5 16 -23 16 -102 l0 -96 41 3 42 3 -2 110 c-2 84 -6 114 -18 127 -20 23 -80
23 -105 1 -17 -15 -19 -15 -36 0 -10 10 -34 17 -52 17 -18 0 -42 -7 -52 -17
-17 -15 -18 -15 -18 0 0 13 -9 17 -38 17 -21 0 -41 -2 -43 -4z"/>
<path d="M6449 10692 c-56 -50 -51 -165 9 -212 51 -41 152 -17 152 36 0 21 -3
23 -19 14 -23 -12 -61 -13 -77 -2 -6 4 -14 17 -18 30 -7 21 -5 22 53 22 l61 0
0 45 c0 35 -6 52 -25 70 -35 36 -94 34 -136 -3z m91 -47 c0 -20 -5 -25 -26
-25 -20 0 -25 4 -20 16 3 9 6 20 6 25 0 5 9 9 20 9 15 0 20 -7 20 -25z"/>
<path d="M6652 10593 l3 -128 40 0 40 0 5 89 c4 71 9 91 23 100 28 17 37 -8
37 -106 l0 -88 40 0 40 0 0 108 c0 130 -10 152 -70 152 -21 0 -45 -7 -53 -15
-13 -13 -16 -13 -21 0 -3 10 -19 15 -46 15 l-41 0 3 -127z"/>
<path d="M7460 10592 l0 -128 40 -2 40 -3 0 76 c0 88 11 115 45 115 22 0 25 4
25 35 0 40 -20 47 -52 18 -17 -15 -18 -15 -18 0 0 13 -9 17 -40 17 l-40 0 0
-128z"/>
<path d="M8130 10589 l0 -130 41 3 41 3 -1 103 c0 56 0 113 -1 127 0 22 -4 25
-40 25 l-40 0 0 -131z"/>
<path d="M8262 10593 l3 -128 40 0 40 0 5 95 c5 87 7 95 25 95 18 0 20 -8 25
-95 l5 -95 40 0 40 0 3 90 c3 101 -1 126 -24 149 -20 20 -73 20 -102 0 -20
-14 -22 -14 -22 0 0 12 -10 16 -40 16 l-41 0 3 -127z"/>
<path d="M8810 10590 l0 -130 39 0 39 0 4 90 c3 91 14 118 42 107 13 -5 16
-24 16 -102 l0 -96 43 3 42 3 0 106 c0 91 -3 110 -19 128 -23 26 -81 28 -108
4 -17 -15 -18 -15 -18 0 0 13 -9 17 -40 17 l-40 0 0 -130z"/>
<path d="M9110 10692 c-48 -49 -49 -163 -1 -206 26 -24 93 -32 131 -16 24 10
30 18 30 43 0 24 -3 28 -12 19 -7 -7 -26 -12 -43 -12 -35 0 -55 15 -55 42 0
15 9 18 54 18 62 0 72 12 56 69 -15 53 -37 71 -87 71 -35 0 -50 -6 -73 -28z
m94 -38 c10 -27 7 -34 -19 -34 -18 0 -25 5 -25 18 0 34 33 45 44 16z"/>
<path d="M9737 10514 c-12 -13 -8 -44 7 -50 16 -6 10 -34 -8 -46 -15 -10 -2
-20 17 -13 20 8 40 56 35 87 -3 23 -36 37 -51 22z"/>
<path d="M2070 10110 c0 -153 2 -180 15 -180 8 0 15 7 15 15 0 8 4 15 9 15 5
0 14 -7 21 -15 21 -25 68 -18 101 14 26 27 29 36 29 96 0 69 -17 118 -45 129
-25 9 -64 7 -86 -4 -18 -10 -19 -7 -19 50 0 53 -2 60 -20 60 -19 0 -20 -7 -20
-180z m116 42 c57 -38 39 -191 -23 -192 -32 0 -53 39 -53 98 0 80 34 122 76
94z"/>
<path d="M3030 10250 c0 -22 -1 -98 -1 -170 0 -71 1 -134 1 -140 0 -5 9 -10
20 -10 19 0 20 7 20 180 0 173 -1 180 -20 180 -17 0 -20 -7 -20 -40z"/>
<path d="M4160 10110 c0 -173 1 -180 20 -180 18 0 20 7 20 86 0 47 5 94 10
104 16 30 46 43 70 30 17 -9 20 -23 22 -113 3 -94 4 -102 23 -102 19 0 20 7
20 106 0 91 -3 110 -19 128 -23 25 -72 28 -104 5 l-22 -15 0 65 c0 59 -2 66
-20 66 -19 0 -20 -7 -20 -180z"/>
<path d="M4650 10110 c0 -173 1 -180 20 -180 19 0 20 7 20 180 0 173 -1 180
-20 180 -19 0 -20 -7 -20 -180z"/>
<path d="M4776 10274 c-9 -8 -16 -31 -16 -50 0 -27 -4 -34 -20 -34 -11 0 -20
-7 -20 -15 0 -8 9 -15 20 -15 19 0 20 -7 20 -115 0 -108 1 -115 20 -115 19 0
20 7 20 115 l0 115 25 0 c16 0 25 6 25 15 0 9 -9 15 -25 15 -18 0 -25 5 -25
19 0 33 11 51 31 51 10 0 19 7 19 15 0 20 -54 20 -74 -1z"/>
<path d="M5642 10113 c3 -170 4 -178 23 -178 19 0 20 8 23 178 l2 177 -25 0
-25 0 2 -177z"/>
<path d="M5890 10230 c0 -55 -10 -75 -25 -50 -12 20 -75 11 -100 -14 -46 -46
-43 -168 6 -217 23 -23 81 -25 100 -3 11 14 13 14 21 0 5 -9 16 -16 23 -16 13
0 15 29 15 180 0 173 -1 180 -20 180 -18 0 -20 -7 -20 -60z m-34 -78 c57 -38
39 -191 -23 -192 -32 0 -53 39 -53 98 0 80 34 122 76 94z"/>
<path d="M6080 10110 c0 -173 1 -180 20 -180 18 0 20 7 20 86 0 47 5 94 10
104 16 30 46 43 70 30 17 -9 20 -23 22 -113 3 -94 4 -102 23 -102 19 0 20 7
20 106 0 91 -3 110 -19 128 -23 25 -72 28 -104 5 l-22 -15 0 65 c0 59 -2 66
-20 66 -19 0 -20 -7 -20 -180z"/>
<path d="M7072 10113 c3 -160 5 -178 21 -181 10 -2 17 3 17 13 0 15 2 15 22 1
53 -38 120 -3 134 69 9 51 -1 113 -24 144 -19 26 -67 39 -98 27 -25 -9 -29 -2
-29 49 0 44 -3 50 -23 53 l-22 3 2 -178z m133 27 c18 -20 25 -96 11 -138 -19
-59 -89 -43 -102 23 -18 97 40 171 91 115z"/>
<path d="M9860 10230 c0 -55 -10 -75 -25 -50 -3 6 -22 10 -41 10 -67 0 -104
-68 -90 -164 12 -81 78 -120 134 -80 20 14 22 14 22 0 0 -9 9 -16 20 -16 19 0
20 7 20 180 0 173 -1 180 -20 180 -18 0 -20 -7 -20 -60z m-26 -86 c53 -52 18
-199 -43 -179 -30 9 -43 39 -43 97 1 81 45 123 86 82z"/>
<path d="M2570 10226 c0 -29 -4 -36 -20 -36 -11 0 -20 -7 -20 -15 0 -8 9 -15
20 -15 18 0 20 -8 22 -112 3 -105 4 -113 23 -113 19 0 20 8 23 113 2 104 4
112 22 112 11 0 20 7 20 15 0 8 -9 15 -19 15 -15 0 -21 8 -23 33 -2 24 -8 33
-25 35 -20 3 -23 -1 -23 -32z"/>
<path d="M3950 10225 c0 -28 -4 -35 -20 -35 -11 0 -20 -7 -20 -15 0 -8 9 -15
20 -15 19 0 20 -7 20 -115 0 -108 1 -115 20 -115 19 0 20 7 20 114 0 108 1
115 20 118 29 4 30 22 3 26 -19 3 -23 10 -23 38 0 27 -4 34 -20 34 -16 0 -20
-7 -20 -35z"/>
<path d="M9377 10253 c-4 -3 -7 -19 -7 -34 0 -18 -6 -28 -20 -32 -26 -7 -26
-27 0 -27 18 0 20 -8 22 -112 3 -105 4 -113 23 -113 19 0 20 8 23 113 2 104 4
112 22 112 11 0 20 7 20 15 0 8 -9 15 -20 15 -16 0 -20 7 -20 35 0 27 -4 35
-18 35 -10 0 -22 -3 -25 -7z"/>
<path d="M3552 10185 c-68 -30 -85 -165 -27 -225 51 -53 131 -35 161 36 47
113 -36 231 -134 189z m78 -45 c16 -16 20 -33 20 -80 0 -47 -4 -64 -20 -80
-11 -11 -25 -20 -31 -20 -43 0 -75 63 -63 127 12 69 54 93 94 53z"/>
<path d="M5213 10185 c-41 -17 -63 -61 -63 -125 0 -88 34 -130 105 -130 125 0
139 235 15 263 -14 3 -39 0 -57 -8z m63 -33 c41 -27 47 -126 10 -169 -21 -25
-26 -26 -50 -15 -33 15 -49 55 -43 110 7 63 47 99 83 74z"/>
<path d="M2310 10080 c0 -97 2 -112 20 -130 24 -24 68 -26 96 -5 25 19 34 19
34 -1 0 -9 7 -14 18 -12 15 3 17 19 20 131 l3 128 -23 -3 c-22 -3 -23 -8 -28
-101 -5 -103 -12 -117 -57 -117 -33 0 -43 29 -43 129 0 84 -1 91 -20 91 -19 0
-20 -7 -20 -110z"/>
<path d="M2808 10173 c-41 -47 -50 -124 -24 -188 23 -54 78 -71 124 -39 20 14
22 14 22 -1 0 -10 7 -15 18 -13 15 3 17 19 20 131 2 122 2 127 -18 127 -12 0
-20 -7 -20 -17 0 -15 -1 -15 -18 0 -25 22 -85 22 -104 0z m98 -34 c14 -15 19
-36 19 -81 0 -51 -4 -63 -24 -79 -13 -10 -27 -19 -31 -19 -4 0 -18 9 -31 19
-20 16 -24 28 -24 79 0 64 21 102 55 102 9 0 25 -9 36 -21z"/>
<path d="M3130 10060 c0 -123 1 -130 20 -130 19 0 20 7 20 95 0 82 3 98 20
115 23 23 43 25 58 7 6 -7 13 -58 14 -113 3 -91 5 -99 23 -99 18 0 20 8 25 98
4 83 8 101 24 113 49 35 65 10 68 -112 3 -91 5 -99 23 -99 18 0 20 8 23 70 4
88 -5 150 -24 170 -22 21 -77 19 -98 -4 -17 -19 -18 -19 -37 0 -23 23 -66 25
-96 4 -19 -13 -22 -13 -27 0 -3 8 -12 15 -21 15 -13 0 -15 -20 -15 -130z"/>
<path d="M3752 10167 c-12 -13 -22 -33 -22 -44 0 -30 36 -70 74 -83 39 -13 51
-33 35 -62 -8 -15 -18 -19 -42 -16 -18 3 -40 8 -49 13 -14 5 -18 2 -18 -13 0
-24 18 -32 75 -32 35 0 48 5 64 26 39 49 26 86 -39 119 -26 13 -50 32 -54 41
-13 34 37 58 74 34 9 -6 17 -5 22 3 25 40 -84 53 -120 14z"/>
<path d="M4425 10166 c-29 -29 -40 -80 -30 -142 12 -80 76 -118 132 -79 19 13
22 13 27 0 3 -8 12 -15 21 -15 13 0 15 20 15 130 0 123 -1 130 -20 130 -12 0
-20 -7 -20 -17 0 -15 -1 -15 -18 0 -27 25 -78 21 -107 -7z m99 -22 c46 -46 23
-184 -31 -184 -32 0 -53 39 -53 98 0 87 41 129 84 86z"/>
<path d="M5007 10179 c-64 -37 -62 -204 2 -239 40 -21 111 -5 111 24 0 10 -11
12 -44 9 -42 -5 -45 -4 -61 27 -24 45 -15 117 16 143 22 18 33 18 72 2 20 -8
24 14 5 33 -15 15 -76 15 -101 1z"/>
<path d="M5400 10089 c0 -95 9 -135 34 -151 21 -14 63 -8 90 13 l26 20 0 -21
c0 -15 5 -20 18 -18 15 3 17 19 20 131 l3 128 -23 -3 c-22 -3 -23 -8 -28 -101
-5 -103 -12 -117 -58 -117 -31 0 -42 34 -42 136 0 77 -2 84 -20 84 -19 0 -20
-7 -20 -101z"/>
<path d="M6348 10173 c-28 -33 -38 -61 -38 -113 0 -105 69 -162 138 -114 20
14 22 14 22 -1 0 -10 7 -15 18 -13 15 3 17 19 20 131 2 122 2 127 -18 127 -12
0 -20 -7 -20 -17 0 -15 -1 -15 -18 0 -25 22 -85 22 -104 0z m95 -30 c37 -42
28 -151 -14 -174 -15 -8 -26 -7 -43 5 -56 36 -36 186 24 186 9 0 24 -8 33 -17z"/>
<path d="M6541 10178 c0 -7 19 -65 42 -128 28 -75 47 -115 57 -115 10 0 29 41
57 120 24 66 43 123 43 128 0 4 -9 7 -20 7 -15 0 -25 -18 -49 -92 -32 -102
-30 -103 -66 16 -17 57 -26 72 -43 74 -13 2 -22 -2 -21 -10z"/>
<path d="M6791 10166 c-49 -53 -47 -169 4 -213 44 -38 135 -26 135 18 0 18 -1
19 -24 4 -44 -29 -106 7 -106 62 0 22 4 23 64 23 49 0 65 4 70 16 10 25 -12
92 -34 104 -34 18 -85 12 -109 -14z m99 -32 c14 -36 6 -43 -43 -41 -36 2 -42
5 -39 22 9 51 65 64 82 19z"/>
<path d="M7337 10160 c-48 -57 -43 -168 10 -209 45 -36 133 -23 133 20 0 19
-1 19 -22 5 -12 -9 -31 -16 -41 -16 -26 0 -67 45 -67 75 0 24 2 25 64 25 73 0
79 7 66 66 -11 47 -32 64 -81 64 -29 0 -43 -7 -62 -30z m98 -35 c0 -28 -3 -30
-38 -30 -47 -1 -54 8 -32 41 12 19 23 24 43 22 23 -2 27 -8 27 -33z"/>
<path d="M7556 10160 c-71 -84 -27 -230 69 -230 46 0 75 15 75 40 0 17 -2 18
-27 4 -37 -18 -45 -18 -77 7 -17 14 -26 30 -26 50 l0 29 65 0 65 0 0 39 c0 56
-31 91 -80 91 -30 0 -43 -6 -64 -30z m92 -12 c7 -7 12 -22 12 -34 0 -20 -5
-22 -40 -20 -51 3 -57 10 -36 41 18 27 45 32 64 13z"/>
<path d="M7750 10060 c0 -123 1 -130 20 -130 18 0 20 7 20 86 0 47 5 94 10
104 16 30 46 43 70 30 17 -9 20 -23 22 -113 3 -94 4 -102 23 -102 18 0 20 8
23 90 3 101 -1 126 -24 149 -20 20 -73 20 -102 0 -20 -14 -22 -14 -22 0 0 9
-9 16 -20 16 -19 0 -20 -7 -20 -130z"/>
<path d="M8080 10005 l0 -185 25 0 c24 0 25 2 25 64 l0 64 28 -10 c41 -16 80
-2 103 35 29 47 23 155 -11 192 -27 29 -74 33 -108 9 -20 -14 -22 -14 -22 0 0
9 -9 16 -20 16 -19 0 -20 -7 -20 -185z m134 140 c20 -20 30 -76 22 -119 -15
-79 -85 -85 -106 -8 -24 92 32 178 84 127z"/>
<path d="M8330 10060 c0 -123 1 -130 20 -130 19 0 20 7 20 93 0 78 3 97 18
110 10 10 26 17 35 17 10 0 17 8 17 20 0 24 -32 27 -51 4 -11 -14 -13 -14 -21
0 -5 9 -16 16 -23 16 -12 0 -15 -23 -15 -130z"/>
<path d="M8498 10160 c-29 -30 -30 -33 -26 -106 3 -69 6 -79 31 -100 46 -39
137 -28 137 17 0 19 -1 19 -22 5 -12 -9 -31 -16 -41 -16 -26 0 -67 45 -67 75
0 24 2 25 64 25 36 0 68 5 71 11 11 17 -5 79 -26 100 -30 30 -84 25 -121 -11z
m102 -26 c16 -41 9 -44 -82 -35 -8 1 1 30 15 49 17 22 57 14 67 -14z"/>
<path d="M8670 10177 c0 -12 35 -118 70 -215 21 -57 39 -36 86 98 24 69 44
126 44 128 0 2 -10 2 -22 0 -19 -2 -28 -18 -52 -93 l-29 -90 -31 93 c-23 70
-34 92 -48 92 -10 0 -18 -6 -18 -13z"/>
<path d="M8915 10164 c-29 -31 -40 -79 -32 -137 7 -51 52 -97 97 -97 45 0 80
17 80 39 0 18 -2 19 -29 5 -53 -26 -89 -6 -105 59 l-6 27 70 0 70 0 0 39 c0
57 -31 91 -81 91 -30 0 -46 -6 -64 -26z m93 -16 c7 -7 12 -22 12 -34 0 -20 -5
-22 -45 -21 -49 2 -58 17 -28 49 19 21 44 23 61 6z"/>
<path d="M9110 10060 c0 -123 1 -130 20 -130 22 0 23 5 20 100 -2 69 12 107
45 122 44 20 54 -1 57 -115 3 -98 4 -102 26 -105 l24 -4 -4 117 c-3 102 -5
118 -22 131 -26 19 -76 18 -104 -2 -20 -14 -22 -14 -22 0 0 9 -9 16 -20 16
-19 0 -20 -7 -20 -130z"/>
<path d="M9517 10160 c-48 -57 -43 -168 10 -209 45 -36 133 -23 133 20 0 19
-1 19 -22 5 -30 -21 -50 -20 -82 5 -17 14 -26 30 -26 50 l0 29 65 0 65 0 0 43
c0 55 -30 87 -82 87 -28 0 -42 -7 -61 -30z m91 -12 c7 -7 12 -21 12 -33 0 -17
-7 -21 -40 -22 -48 -2 -57 9 -36 42 18 27 45 32 64 13z"/>
<path d="M3950 9585 c0 -168 1 -175 20 -175 18 0 20 7 20 84 0 69 4 88 21 110
11 14 28 26 38 26 34 0 41 -21 41 -122 0 -98 0 -98 25 -98 25 0 25 0 25 95 0
141 -30 182 -110 148 -18 -7 -34 -13 -36 -13 -2 0 -4 27 -4 60 0 53 -2 60 -20
60 -19 0 -20 -7 -20 -175z"/>
<path d="M6060 9585 c0 -168 1 -175 20 -175 11 0 20 4 20 10 0 5 13 2 29 -8
36 -20 75 -9 104 30 28 37 28 132 1 179 -17 29 -26 34 -63 37 -23 2 -49 -2
-57 -9 -12 -10 -14 -2 -14 50 0 54 -2 61 -20 61 -19 0 -20 -7 -20 -175z m137
15 c18 -35 16 -111 -3 -138 -18 -27 -61 -29 -80 -4 -19 24 -18 122 2 150 21
31 64 26 81 -8z"/>
<path d="M6990 9698 c0 -48 -3 -59 -12 -50 -21 21 -82 14 -107 -12 -26 -27
-38 -93 -27 -149 14 -73 89 -112 132 -70 13 13 19 14 22 5 2 -6 12 -12 23 -12
18 0 19 9 19 175 l0 175 -25 0 c-24 0 -25 -3 -25 -62z m-16 -83 c24 -24 30
-96 12 -139 -14 -34 -19 -37 -48 -34 -29 3 -35 9 -47 43 -31 91 28 184 83 130z"/>
<path d="M7240 9701 l0 -59 -37 13 c-44 15 -70 7 -98 -29 -29 -39 -28 -143 1
-183 30 -40 68 -52 105 -31 16 10 29 13 29 8 0 -6 9 -10 20 -10 19 0 20 7 20
175 0 168 -1 175 -20 175 -18 0 -20 -7 -20 -59z m-16 -93 c10 -13 16 -43 16
-73 0 -59 -21 -95 -55 -95 -34 0 -55 36 -55 95 0 59 21 95 55 95 13 0 31 -10
39 -22z"/>
<path d="M8450 9701 l0 -60 -26 14 c-14 7 -33 12 -42 10 -9 -2 -23 -4 -29 -4
-18 -1 -44 -44 -53 -88 -25 -109 56 -211 126 -158 22 17 38 20 29 5 -3 -6 5
-10 19 -10 18 0 23 5 21 18 -2 9 -4 88 -4 175 -1 150 -2 157 -21 157 -18 0
-20 -7 -20 -59z m-16 -93 c18 -26 22 -119 6 -149 -16 -29 -65 -25 -86 6 -19
29 -16 124 5 149 19 23 57 20 75 -6z"/>
<path d="M5380 9695 c0 -28 -4 -35 -20 -35 -11 0 -20 -7 -20 -15 0 -8 9 -15
20 -15 19 0 20 -7 20 -110 l0 -110 25 0 25 0 0 110 c0 103 1 110 20 110 11 0
20 7 20 15 0 8 -9 15 -20 15 -16 0 -20 7 -20 35 0 31 -3 35 -25 35 -22 0 -25
-4 -25 -35z"/>
<path d="M5610 9695 c0 -28 -4 -35 -20 -35 -11 0 -20 -7 -20 -15 0 -8 9 -15
20 -15 19 0 20 -7 20 -110 0 -103 1 -110 20 -110 19 0 20 7 20 110 0 102 1
110 19 110 31 0 35 19 7 30 -20 7 -26 17 -26 40 0 23 -4 30 -20 30 -16 0 -20
-7 -20 -35z"/>
<path d="M3523 9660 c-42 -17 -64 -68 -61 -137 3 -53 8 -67 33 -93 62 -65 156
-24 170 74 17 110 -57 190 -142 156z m81 -52 c10 -14 16 -44 16 -76 0 -63 -31
-105 -70 -95 -48 13 -65 129 -24 174 23 25 59 24 78 -3z"/>
<path d="M4251 9661 c-74 -19 -97 -173 -34 -235 29 -30 68 -34 101 -10 12 8
22 10 22 5 0 -6 9 -11 20 -11 19 0 20 7 20 125 0 118 -1 125 -20 125 -12 0
-20 -7 -20 -17 0 -14 -2 -15 -17 -1 -25 21 -44 26 -72 19z m63 -46 c30 -30 33
-128 5 -162 -6 -7 -24 -13 -40 -13 -37 0 -53 30 -52 98 1 77 46 118 87 77z"/>
<path d="M4694 9660 c-42 -16 -64 -58 -64 -122 0 -71 19 -111 60 -128 47 -19
104 -3 108 30 3 20 1 23 -9 13 -18 -17 -84 -16 -98 1 -7 8 -15 30 -18 50 l-6
36 72 0 c71 0 71 0 71 28 0 31 -34 92 -52 93 -7 0 -20 2 -28 3 -8 2 -25 0 -36
-4z m66 -49 c18 -34 12 -41 -40 -41 -43 0 -49 2 -43 18 16 45 63 58 83 23z"/>
<path d="M5200 9658 c-35 -12 -58 -46 -65 -94 -14 -86 32 -164 96 -164 42 0
79 20 79 44 0 15 -3 17 -12 8 -7 -7 -29 -12 -49 -12 -43 0 -69 27 -69 72 0 28
1 28 65 28 l65 0 0 38 c0 20 -7 45 -14 55 -18 24 -65 36 -96 25z m68 -60 c3
-27 2 -28 -42 -28 -51 0 -51 -1 -34 35 9 21 18 25 42 23 25 -2 32 -8 34 -30z"/>
<path d="M5783 9660 c-43 -17 -64 -68 -60 -139 3 -57 7 -67 35 -92 96 -86 208
33 157 167 -24 63 -74 87 -132 64z m81 -52 c10 -13 16 -43 16 -73 0 -63 -20
-95 -61 -95 -25 0 -33 6 -45 37 -18 43 -12 108 13 135 22 25 59 23 77 -4z"/>
<path d="M6666 9661 c-47 -9 -69 -50 -70 -125 -1 -51 3 -71 20 -93 30 -40 68
-52 105 -31 16 10 29 13 29 8 0 -6 9 -10 20 -10 19 0 20 7 20 125 0 118 -1
125 -20 125 -11 0 -20 -5 -20 -11 0 -8 -4 -8 -12 -2 -21 16 -41 20 -72 14z
m68 -53 c18 -25 21 -109 6 -138 -6 -11 -19 -24 -30 -30 -16 -9 -25 -6 -45 14
-20 20 -25 35 -25 78 0 62 20 98 55 98 13 0 31 -10 39 -22z"/>
<path d="M7542 9659 c-41 -15 -62 -57 -62 -126 0 -61 2 -67 34 -99 36 -36 64
-42 111 -24 26 10 43 35 31 47 -3 4 -12 1 -18 -5 -7 -7 -29 -12 -50 -12 -34 0
-40 4 -55 34 -25 54 -14 66 63 66 l67 0 -6 41 c-3 22 -13 49 -22 59 -18 20
-63 30 -93 19z m68 -48 c18 -34 12 -41 -40 -41 -43 0 -49 2 -43 18 16 45 63
58 83 23z"/>
<path d="M7750 9663 c-32 -12 -50 -37 -50 -69 0 -34 16 -51 79 -86 34 -19 40
-48 16 -68 -12 -10 -24 -11 -52 -2 -54 17 -76 -4 -28 -26 69 -32 135 -1 135
61 0 37 -18 59 -72 85 -24 13 -33 24 -33 42 0 23 3 25 48 23 34 -1 47 3 47 12
0 8 -3 16 -7 18 -16 9 -68 15 -83 10z"/>
<path d="M7940 9660 c-14 -3 -31 -18 -40 -32 -22 -41 -5 -78 53 -108 33 -18
47 -31 47 -46 0 -36 -25 -49 -67 -36 -29 9 -39 9 -45 -1 -10 -16 29 -36 72
-37 45 0 77 22 85 59 9 41 -7 65 -61 91 -51 25 -63 43 -43 66 9 12 23 14 50
10 27 -4 38 -2 43 9 4 10 -3 17 -22 21 -15 3 -31 7 -37 8 -5 2 -21 0 -35 -4z"/>
<path d="M8144 9659 c-40 -14 -58 -48 -62 -113 -5 -76 13 -117 58 -136 47 -19
104 -3 108 30 3 20 1 23 -9 13 -7 -7 -30 -13 -51 -13 -34 0 -40 4 -55 34 -25
54 -14 66 62 66 64 0 65 0 65 28 0 43 -33 89 -68 94 -16 2 -38 1 -48 -3z m66
-48 c18 -34 12 -41 -40 -41 -43 0 -49 2 -43 18 16 45 63 58 83 23z"/>
<path d="M3710 9535 c0 -118 1 -125 20 -125 18 0 20 7 20 83 0 93 15 127 56
127 17 0 24 5 24 20 0 25 -36 27 -62 3 -17 -15 -18 -15 -18 0 0 10 -8 17 -20
17 -19 0 -20 -7 -20 -125z"/>
<path d="M4412 9648 c3 -7 22 -64 43 -125 51 -150 59 -150 114 3 22 64 41 120
41 125 0 5 -9 9 -20 9 -16 0 -25 -17 -48 -92 l-29 -93 -29 92 c-26 82 -32 93
-53 93 -14 0 -21 -5 -19 -12z"/>
<path d="M4920 9653 c0 -4 17 -58 37 -120 40 -121 40 -108 6 -225 -4 -13 0
-18 15 -18 17 0 28 25 78 173 31 94 59 178 62 185 3 10 -2 13 -18 10 -19 -2
-28 -17 -49 -80 -14 -42 -29 -79 -32 -83 -4 -3 -18 33 -33 80 -22 69 -30 85
-46 85 -11 0 -20 -3 -20 -7z"/>
<path d="M6321 9633 c-28 -35 -34 -63 -29 -125 7 -64 48 -108 101 -108 37 0
77 24 77 46 0 13 -4 13 -27 1 -44 -22 -89 -5 -103 38 -6 19 -9 39 -5 45 3 5
35 10 71 10 l64 0 0 34 c0 19 -9 45 -21 60 -16 21 -29 26 -64 26 -35 0 -48 -5
-64 -27z m97 -15 c7 -7 12 -20 12 -30 0 -15 -8 -18 -45 -18 -46 0 -53 7 -35
41 12 21 50 25 68 7z"/>
<path d="M7340 9535 c0 -118 1 -125 20 -125 18 0 20 7 20 88 0 94 9 115 54
123 11 2 20 12 22 22 3 22 -33 23 -58 0 -17 -15 -18 -15 -18 0 0 10 -8 17 -20
17 -19 0 -20 -7 -20 -125z"/>
<path d="M5760 8804 c-19 -2 -80 -9 -135 -15 -451 -47 -891 -180 -1301 -394
-345 -179 -617 -379 -900 -660 -184 -183 -336 -366 -468 -565 -75 -112 -226
-368 -226 -383 0 -3 19 -15 43 -25 47 -21 94 -70 103 -108 7 -27 11 -28 85
-13 54 11 55 12 72 59 43 120 178 171 296 110 36 -18 91 -84 91 -108 0 -17 13
-15 83 14 165 70 372 144 401 144 46 0 76 -35 76 -87 0 -33 -6 -46 -26 -62
-44 -34 -59 -24 -20 13 20 18 36 38 36 44 0 21 -52 72 -73 72 -12 0 -121 -38
-242 -84 l-220 -83 -6 -61 c-15 -150 -169 -230 -305 -159 -41 21 -79 67 -94
112 -10 29 -16 35 -41 35 -16 0 -57 -13 -92 -28 -51 -24 -280 -147 -337 -182
-8 -5 -50 -29 -92 -54 -46 -27 -83 -57 -92 -73 -8 -16 -36 -117 -62 -225 -27
-109 -52 -198 -55 -198 -4 0 -14 39 -23 88 -9 48 -39 209 -66 357 -82 438
-140 753 -140 759 0 8 -47 27 -345 136 -148 54 -485 178 -749 275 l-479 176
-54 -36 c-45 -30 -54 -40 -49 -58 2 -12 43 -274 91 -582 47 -308 92 -600 100
-650 8 -49 49 -313 90 -585 42 -272 80 -520 85 -550 6 -30 42 -262 80 -515 38
-253 74 -487 80 -520 10 -60 53 -341 113 -740 l32 -210 50 1 c28 1 415 2 861
3 l810 1 -25 139 -25 140 -39 -20 c-36 -19 -39 -23 -33 -52 15 -75 18 -107 10
-107 -5 0 -326 0 -714 -1 l-705 0 -17 118 c-10 65 -27 174 -38 243 -11 69 -42
271 -70 450 -27 179 -79 514 -115 745 -36 231 -81 524 -100 650 -20 127 -76
491 -125 810 -50 319 -110 706 -134 860 -24 154 -41 283 -39 287 2 4 58 -13
126 -36 142 -51 1114 -397 1200 -428 33 -12 60 -26 62 -32 2 -6 40 -211 85
-456 44 -245 85 -465 90 -490 5 -25 21 -112 36 -195 14 -82 30 -154 35 -159 6
-6 9 -5 9 2 0 7 5 12 12 12 6 0 116 -43 245 -97 170 -70 233 -101 233 -113 0
-9 -15 -79 -34 -156 -37 -151 -157 -664 -202 -861 -15 -68 -24 -126 -21 -130
4 -3 21 7 38 23 38 35 383 414 526 577 147 166 263 258 441 346 89 45 262 106
328 117 l41 6 6 -118 c18 -348 160 -689 353 -848 116 -96 227 -136 380 -138
121 -2 209 26 301 96 196 149 333 476 378 904 l7 63 32 -7 c156 -33 336 -134
493 -278 104 -95 251 -282 351 -448 31 -50 311 -1035 546 -1918 80 -301 204
-808 237 -975 18 -88 34 -162 35 -164 2 -2 26 2 54 9 45 11 51 15 46 33 -3 12
2 35 10 52 25 53 76 71 302 102 l203 28 -7 38 c-12 77 27 119 140 151 62 18
86 16 86 -8 0 -15 39 -24 133 -29 l49 -2 -22 -28 c-16 -20 -27 -26 -44 -21
-28 7 -31 -3 -41 -118 l-7 -78 151 0 151 0 0 39 c0 23 -8 48 -20 64 -20 25
-40 68 -54 114 -7 20 -3 22 46 25 l53 3 9 102 8 102 137 109 c75 60 182 153
238 207 66 61 105 92 108 83 45 -129 130 -453 140 -530 8 -68 4 -67 150 -44
50 8 120 18 158 21 37 4 69 10 71 14 5 7 -39 270 -114 688 l-53 292 75 113
c239 361 400 729 512 1174 l25 100 -42 228 -43 228 -37 13 c-26 9 -91 68 -236
216 -271 277 -358 383 -466 563 l-55 92 14 80 c8 43 19 129 26 190 l12 111
101 6 c56 4 103 5 105 2 9 -8 32 -194 32 -256 0 -58 3 -68 26 -90 65 -59 215
-317 311 -531 57 -127 57 -128 91 -128 46 0 86 -26 131 -85 21 -27 52 -55 68
-61 l30 -11 7 96 c8 125 -9 434 -35 619 -77 549 -276 1069 -585 1533 -251 376
-620 749 -984 995 -508 344 -1020 537 -1643 620 -106 14 -626 28 -707 18z
m2674 -1349 c20 -14 43 -25 51 -25 19 0 40 -128 24 -144 -9 -9 -374 -10 -374
-1 1 6 4 43 9 83 l8 72 47 1 c25 0 66 9 91 19 62 26 100 25 144 -5z m-374
-132 c19 -24 21 -37 17 -89 -3 -42 0 -66 9 -79 17 -23 19 -21 30 39 10 56 29
70 43 33 14 -36 72 -77 109 -77 23 0 36 7 48 25 9 14 23 25 31 25 8 0 24 -11
35 -25 23 -29 62 -33 97 -8 l24 16 -7 -39 c-12 -60 -43 -144 -70 -185 -21 -31
-24 -46 -21 -90 6 -71 0 -86 -44 -108 -79 -41 -249 -34 -341 14 l-30 15 35 53
c45 68 63 153 42 205 -8 21 -18 57 -22 82 -4 24 -16 56 -27 71 -25 33 -36 113
-18 134 18 22 36 18 60 -12z m-4046 -727 c-6 -16 12 -56 30 -68 34 -23 96 6
96 44 0 22 13 23 34 2 40 -39 6 -64 -86 -63 -112 2 -147 24 -115 73 18 27 50
37 41 12z m484 -18 c1 -35 31 -68 61 -68 25 0 61 29 61 49 0 27 12 33 32 14
50 -45 -14 -81 -123 -68 -68 8 -97 31 -80 64 9 15 32 36 47 41 1 0 1 -15 2
-32z m3267 -507 c44 -4 79 -11 78 -16 0 -6 -27 -124 -58 -264 l-56 -254 15
-81 c9 -45 27 -167 41 -273 30 -229 50 -344 72 -424 13 -48 23 -63 50 -80 20
-13 50 -49 75 -92 23 -40 47 -82 55 -93 21 -34 -10 -39 -44 -8 -14 13 -31 23
-37 21 -23 -8 -15 -38 30 -112 52 -86 50 -100 -19 -112 -82 -13 -150 24 -200
110 -52 88 -72 214 -43 266 12 22 9 33 -31 120 -56 121 -176 425 -238 601 -33
97 -47 151 -47 190 0 57 40 485 48 508 4 13 84 11 309 -7z"/>
<path d="M8213 7348 c-34 -16 -28 -23 20 -23 23 -1 50 -5 60 -9 12 -6 17 -4
17 6 0 15 -40 39 -63 37 -7 0 -22 -5 -34 -11z"/>
<path d="M8407 7343 c-19 -18 -3 -28 47 -28 48 0 53 2 45 18 -10 17 -78 25
-92 10z"/>
<path d="M8290 7050 c0 -5 20 -10 45 -10 25 0 45 5 45 10 0 6 -20 10 -45 10
-25 0 -45 -4 -45 -10z"/>
<path d="M9666 4849 c-21 -16 -46 -29 -54 -29 -8 0 -12 -6 -9 -15 4 -8 16 -77
29 -155 13 -77 26 -140 29 -140 4 0 14 57 22 128 22 175 29 242 25 241 -2 0
-21 -14 -42 -30z"/>
<path d="M5472 3623 c-68 -343 -73 -377 -72 -496 0 -157 24 -288 81 -437 180
-472 341 -906 394 -1065 l64 -190 57 -3 56 -3 -7 43 c-39 242 -186 1003 -422
2181 -37 185 -70 337 -73 337 -3 0 -38 -165 -78 -367z"/>
<path d="M3114 3772 c-344 -246 -394 -284 -394 -294 0 -19 147 -271 236 -405
106 -160 175 -249 315 -408 109 -124 287 -299 247 -244 l-26 35 49 177 c75
273 85 446 39 643 -10 44 -57 214 -104 377 -47 163 -86 299 -86 302 0 14 -35
-9 -276 -183z"/>
<path d="M9086 1925 c-27 -41 -70 -57 -131 -50 -62 8 -61 9 -86 -89 -29 -111
-32 -106 66 -106 67 0 86 3 93 16 8 15 10 15 15 0 6 -14 35 -16 241 -16 228 0
236 1 246 21 9 16 8 26 -5 45 -21 33 -54 44 -129 44 -35 0 -80 7 -99 15 -46
19 -100 66 -127 111 -26 41 -60 45 -84 9z"/>
<path d="M6669 1356 c-2 -3 -67 -6 -144 -6 l-140 -2 -58 -61 c-41 -42 -70 -85
-96 -142 -27 -57 -49 -90 -75 -110 -54 -41 -45 -84 14 -63 14 5 59 45 102 88
72 76 99 92 113 70 16 -26 46 -226 55 -372 14 -226 32 -320 58 -304 13 8 20
65 31 234 8 127 13 153 27 139 4 -4 17 -89 30 -189 12 -101 28 -196 34 -213
10 -27 12 -28 22 -12 12 22 27 170 29 282 1 85 12 142 22 115 3 -8 8 -84 12
-168 6 -150 15 -207 28 -184 4 6 21 91 38 189 16 98 34 182 39 187 13 13 14 9
14 -111 1 -66 5 -106 13 -114 21 -21 33 32 45 195 l11 151 -31 117 c-35 127
-79 256 -94 276 -10 11 -89 18 -99 8z"/>
<path d="M8977 1193 c-3 -4 -3 -68 0 -140 5 -121 8 -133 24 -133 17 0 19 10
21 100 4 188 5 175 -19 178 -11 2 -23 0 -26 -5z"/>
<path d="M8890 1111 c-216 -69 -322 -301 -231 -506 28 -63 113 -150 180 -182
50 -25 67 -28 161 -28 94 0 111 3 160 27 148 73 239 242 211 392 -27 148 -126
257 -270 300 -64 19 -61 18 -61 7 0 -5 17 -12 37 -16 45 -8 109 -38 146 -68
28 -22 28 -23 9 -40 -19 -17 -20 -17 -38 12 -28 43 -46 28 -33 -28 9 -43 9
-43 -38 -91 -27 -26 -58 -51 -70 -54 -35 -11 -32 -61 6 -80 63 -33 54 -109
-16 -130 -31 -10 -29 -27 7 -61 36 -34 38 -77 5 -83 -11 -2 -24 -9 -30 -14
-16 -17 64 1 110 24 22 11 47 27 56 34 14 12 18 11 34 -6 17 -19 17 -21 1 -39
-9 -10 -45 -31 -79 -47 -53 -24 -75 -28 -147 -28 -72 0 -94 4 -147 28 -34 16
-70 37 -79 47 -16 18 -16 20 0 38 17 19 19 19 64 -10 59 -37 153 -65 138 -40
-3 4 -22 11 -42 14 -38 6 -124 52 -124 67 0 15 58 22 81 10 32 -18 79 -30 79
-21 0 4 -17 13 -37 20 -21 6 -47 18 -58 26 -19 15 -19 16 2 37 18 18 24 19 37
8 10 -7 16 -8 16 -2 0 6 -5 14 -11 17 -12 8 17 45 36 45 6 0 12 7 12 15 0 8
-6 15 -13 15 -6 0 -26 13 -43 29 -24 22 -31 38 -31 66 l0 37 -35 -36 c-19 -20
-35 -41 -35 -46 0 -6 -4 -10 -10 -10 -15 0 -12 47 6 83 29 57 34 60 61 36 27
-26 31 -15 6 14 -17 18 -17 20 6 39 14 10 38 22 53 25 28 6 49 23 28 23 -18 0
-83 -30 -102 -47 -11 -9 -18 -11 -18 -5 0 6 15 19 32 28 52 27 98 68 98 87 0
9 -5 17 -10 17 -20 0 -75 -27 -88 -43 -8 -9 -19 -14 -26 -11 -7 3 -19 -2 -26
-11 -17 -20 -33 -19 -54 4 -16 18 -16 20 11 39 45 32 106 60 146 67 20 4 37
11 37 16 0 12 -5 11 -70 -10z m-127 -129 c15 -16 14 -21 -13 -61 -31 -45 -50
-99 -50 -138 0 -19 -6 -23 -30 -23 -36 0 -38 18 -15 96 15 52 69 144 83 144 5
0 16 -8 25 -18z m81 -16 c-7 -29 -14 -32 -32 -14 -10 10 -8 16 10 30 28 20 31
18 22 -16z m457 -13 c31 -50 59 -130 59 -170 0 -19 -5 -23 -30 -23 -25 0 -30
4 -30 25 0 37 -37 135 -60 160 -19 20 -19 22 -3 38 25 25 30 22 64 -30z m-488
-17 c22 -17 21 -22 -2 -55 -11 -15 -25 -48 -32 -74 -9 -39 -15 -47 -35 -47
-12 0 -25 4 -28 9 -9 15 20 108 45 146 27 39 27 39 52 21z m420 -43 c24 -20
39 -41 46 -70 16 -59 14 -63 -19 -63 -31 0 -33 4 -33 63 0 15 -2 26 -5 23 -4
-5 -52 59 -52 69 0 13 31 2 63 -22z m-49 -36 c8 -18 17 -47 21 -64 6 -31 5
-33 -21 -33 -25 0 -26 2 -12 18 19 22 17 48 -3 44 -9 -1 -24 7 -34 18 -17 19
-17 21 0 40 21 23 30 19 49 -23z m-339 -76 c3 -5 1 -12 -5 -16 -5 -3 -10 1
-10 9 0 18 6 21 15 7z m-143 -66 c2 -19 0 -36 -4 -36 -4 -1 -14 -2 -20 -3 -12
-1 -14 -8 -9 -36 0 -5 5 -9 10 -7 14 3 63 -31 84 -60 18 -23 18 -25 1 -44 -17
-19 -18 -19 -41 3 -32 30 -72 117 -80 173 -6 45 -6 45 25 45 27 0 30 -4 34
-35z m68 31 c0 -2 -7 -20 -16 -41 -17 -41 -28 -38 -39 13 -6 31 -5 32 24 32
17 0 31 -2 31 -4z m27 -18 c-3 -8 -6 -5 -6 6 -1 11 2 17 5 13 3 -3 4 -12 1
-19z m54 -12 c4 -16 15 -36 23 -45 15 -16 14 -19 -7 -39 l-24 -22 -17 60 c-9
34 -14 66 -10 71 10 17 27 4 35 -25z m359 12 c0 -25 -38 -108 -50 -108 -11 0
-20 26 -20 56 0 17 8 27 26 34 22 9 24 13 14 25 -10 12 -9 15 9 15 15 0 21 -6
21 -22z m75 -10 c-11 -51 -45 -125 -66 -144 -18 -16 -19 -16 -19 4 0 15 -5 20
-15 16 -21 -8 -19 1 9 49 13 23 27 57 31 75 6 27 11 32 37 32 28 0 29 -2 23
-32z m71 -15 c-7 -51 -43 -132 -77 -172 l-20 -24 -21 20 -21 21 27 34 c29 38
56 108 56 144 0 20 5 24 31 24 l32 0 -7 -47z m-447 14 c30 -13 31 -14 13 -30
-25 -23 -29 -22 -47 13 -17 33 -12 36 34 17z m271 -181 c-19 -24 -26 -19 -25
19 0 34 0 34 19 15 16 -16 17 -22 6 -34z"/>
<path d="M9150 865 c0 -8 2 -15 4 -15 2 0 6 7 10 15 3 8 1 15 -4 15 -6 0 -10
-7 -10 -15z"/>
<path d="M8664 1088 c-40 -31 -61 -58 -73 -90 l-10 -27 39 25 c32 22 70 66 88
107 7 14 -16 7 -44 -15z"/>
<path d="M9311 1073 c22 -38 58 -75 91 -94 34 -19 -1 48 -48 90 -55 51 -72 52
-43 4z"/>
<path d="M9030 1053 c0 -11 11 -23 30 -30 33 -13 50 -54 30 -78 -7 -8 -44 -24
-82 -36 -117 -34 -153 -98 -87 -153 17 -14 35 -26 40 -26 15 0 10 42 -8 62
-13 14 -15 23 -7 35 11 17 25 23 103 43 93 24 128 100 74 160 -35 37 -93 52
-93 23z"/>
<path d="M10250 906 l0 -146 25 0 26 0 -3 143 c-3 139 -4 142 -25 145 -23 3
-23 3 -23 -142z"/>
<path d="M10440 993 c0 -44 -3 -54 -12 -45 -18 18 -56 14 -78 -8 -25 -25 -28
-124 -5 -157 14 -19 24 -22 80 -21 l65 1 0 143 0 144 -25 0 c-24 0 -25 -3 -25
-57z m-6 -89 c10 -27 7 -79 -8 -99 -31 -43 -69 28 -47 88 12 30 45 37 55 11z"/>
<path d="M11217 1043 c-4 -3 -7 -69 -7 -145 l0 -138 25 0 25 0 0 145 c0 134
-1 145 -18 145 -10 0 -22 -3 -25 -7z"/>
<path d="M11427 1043 c-4 -3 -7 -69 -7 -145 l0 -138 25 0 c23 0 24 3 27 71 2
56 7 74 21 83 26 16 37 -8 37 -86 0 -67 1 -68 26 -68 l27 0 -5 84 c-2 49 -10
91 -17 100 -16 19 -62 21 -79 4 -9 -9 -12 1 -12 45 0 49 -3 57 -18 57 -10 0
-22 -3 -25 -7z"/>
<path d="M8550 999 c-16 -36 -29 -139 -17 -139 10 0 149 141 144 146 -6 6 -55
-24 -93 -58 l-21 -19 8 53 c5 28 6 54 4 56 -3 3 -14 -15 -25 -39z"/>
<path d="M9426 998 c3 -24 8 -50 10 -58 4 -10 -3 -8 -18 6 -39 35 -89 66 -95
60 -4 -3 26 -37 65 -74 74 -71 82 -72 82 -9 0 31 -33 117 -45 117 -3 0 -3 -19
1 -42z"/>
<path d="M9641 1008 c0 -13 10 -72 22 -133 22 -110 22 -110 53 -113 l30 -3 19
103 c20 114 22 112 45 -29 11 -71 13 -73 41 -73 32 0 28 -9 59 144 25 121 25
126 1 126 -20 0 -30 -31 -46 -143 -4 -26 -10 -46 -12 -43 -3 3 -13 45 -22 93
-16 87 -16 88 -46 88 -29 0 -30 -1 -46 -80 -22 -116 -24 -118 -38 -30 -17 107
-19 115 -42 115 -13 0 -19 -7 -18 -22z"/>
<path d="M10640 895 l0 -135 25 0 c24 0 25 3 25 60 l0 60 35 0 35 0 0 -60 c0
-57 1 -60 25 -60 l25 0 0 135 0 135 -25 0 c-24 0 -25 -3 -25 -55 l0 -55 -35 0
-35 0 0 55 c0 52 -1 55 -25 55 l-25 0 0 -135z"/>
<path d="M11333 1003 c-7 -2 -13 -13 -13 -24 0 -10 -7 -19 -15 -19 -8 0 -15
-9 -15 -20 0 -11 7 -20 15 -20 12 0 15 -14 15 -64 0 -86 5 -96 46 -96 38 0 45
18 14 38 -16 10 -20 23 -20 67 0 48 2 55 20 55 13 0 20 7 20 20 0 13 -7 20
-20 20 -15 0 -20 7 -20 25 0 25 -4 28 -27 18z"/>
<path d="M9034 971 c8 -12 46 -21 46 -11 0 8 -24 20 -41 20 -6 0 -8 -4 -5 -9z"/>
<path d="M9955 935 c-38 -37 -32 -140 9 -167 6 -4 30 -8 53 -8 54 0 78 31 78
101 0 89 -83 132 -140 74z m86 -39 c14 -30 3 -95 -17 -103 -26 -10 -44 17 -44
67 0 25 3 50 7 53 14 15 44 6 54 -17z"/>
<path d="M10120 860 l0 -100 25 0 c24 0 25 3 25 59 0 72 6 91 31 91 14 0 19 7
19 25 0 26 -18 33 -37 14 -8 -8 -13 -8 -17 0 -4 6 -16 11 -27 11 -18 0 -19 -8
-19 -100z"/>
<path d="M10870 940 c-25 -25 -34 -61 -27 -107 9 -52 36 -76 86 -75 47 1 61 7
61 28 0 12 -8 13 -35 8 -37 -7 -65 7 -65 32 0 10 14 14 49 14 57 0 63 6 55 48
-13 66 -81 95 -124 52z m68 -22 c21 -21 13 -38 -18 -38 -18 0 -30 5 -30 13 0
13 19 37 30 37 3 0 11 -5 18 -12z"/>
<path d="M11053 953 c-7 -2 -13 -13 -13 -24 0 -15 4 -17 23 -10 24 9 48 4 59
-13 11 -16 -1 -26 -30 -26 -43 0 -72 -26 -72 -64 0 -40 15 -56 55 -56 17 0 36
5 43 12 9 9 12 9 12 0 0 -7 9 -12 20 -12 18 0 20 7 20 80 0 67 -3 83 -20 100
-19 19 -67 26 -97 13z m77 -107 c0 -3 -4 -16 -10 -30 -16 -44 -69 -30 -55 14
4 14 15 20 36 20 16 0 29 -2 29 -4z"/>
<path d="M8494 914 c-17 -40 -12 -78 15 -132 l17 -33 42 60 c23 33 47 72 52
87 l10 26 -29 -24 c-16 -13 -38 -39 -49 -57 l-20 -35 -8 40 c-4 21 -8 54 -8
72 0 17 -2 32 -4 32 -1 0 -10 -16 -18 -36z"/>
<path d="M9484 917 c0 -18 -4 -50 -8 -71 l-8 -40 -20 35 c-21 36 -78 88 -78
70 0 -5 20 -39 45 -75 25 -37 45 -71 45 -76 0 -20 17 -9 30 18 25 53 30 86 20
124 -13 48 -26 55 -26 15z"/>
<path d="M8984 835 c-8 -20 0 -152 9 -161 12 -13 15 -1 23 89 6 77 5 87 -10
87 -9 0 -19 -7 -22 -15z"/>
<path d="M8954 819 c-3 -6 -1 -16 5 -22 8 -8 11 -5 11 11 0 24 -5 28 -16 11z"/>
<path d="M8464 807 c-12 -32 7 -87 45 -130 l37 -44 27 76 c15 42 27 83 27 91
-1 26 -49 -43 -57 -80 l-6 -35 -33 69 c-24 50 -35 65 -40 53z"/>
<path d="M9495 752 l-29 -65 -9 34 c-11 41 -49 97 -55 80 -2 -6 9 -47 24 -90
l27 -77 33 36 c36 40 54 78 54 115 0 44 -15 33 -45 -33z"/>
<path d="M9030 731 c0 -11 5 -23 10 -26 20 -13 9 -27 -39 -47 -54 -22 -67 -39
-51 -69 15 -27 30 -24 30 6 0 19 7 26 28 31 57 14 82 33 82 64 0 19 -8 34 -22
44 -29 21 -38 20 -38 -3z"/>
<path d="M8582 675 c-6 -22 -12 -52 -14 -68 -3 -26 -5 -25 -57 35 -54 62 -54
63 -47 28 8 -45 39 -89 86 -123 21 -15 40 -27 43 -27 9 0 15 139 8 167 l-8 28
-11 -40z"/>
<path d="M9397 689 c-8 -29 3 -169 13 -169 17 0 104 87 116 117 27 62 14 64
-38 5 l-53 -60 -8 50 c-10 66 -22 89 -30 57z"/>
<path d="M9025 690 c-3 -5 -1 -10 4 -10 6 0 11 5 11 10 0 6 -2 10 -4 10 -3 0
-8 -4 -11 -10z"/>
<path d="M10570 675 c0 -20 5 -25 25 -25 20 0 25 5 25 25 0 20 -5 25 -25 25
-20 0 -25 -5 -25 -25z"/>
<path d="M11130 675 c0 -20 5 -25 25 -25 20 0 25 5 25 25 0 20 -5 25 -25 25
-20 0 -25 -5 -25 -25z"/>
<path d="M9689 675 c-45 -24 -68 -105 -49 -174 38 -144 200 -104 200 49 0 107
-73 168 -151 125z m86 -55 c29 -57 15 -152 -25 -165 -47 -15 -79 59 -60 139
14 63 59 77 85 26z"/>
<path d="M11030 660 c-8 -5 -15 -17 -15 -27 0 -10 -7 -18 -15 -18 -8 0 -16 -8
-18 -17 -2 -11 3 -18 11 -18 11 0 16 -18 19 -72 6 -76 22 -102 63 -96 27 4 31
34 5 41 -17 4 -20 13 -20 66 0 54 2 61 20 61 12 0 20 7 20 16 0 9 -9 18 -20
21 -13 3 -20 14 -20 29 0 26 -7 29 -30 14z"/>
<path d="M9877 613 c-4 -3 -7 -48 -7 -100 0 -92 0 -93 25 -93 23 0 24 3 27 73
3 66 5 72 26 75 16 3 22 10 22 28 0 27 -21 32 -41 8 -11 -14 -13 -14 -21 0
-10 17 -20 20 -31 9z"/>
<path d="M10015 598 c-21 -19 -26 -32 -27 -75 -2 -65 21 -103 60 -103 16 0 33
5 40 12 9 9 12 6 12 -14 0 -35 -22 -50 -67 -46 -28 2 -38 -1 -38 -12 0 -21 45
-34 88 -26 56 11 68 43 65 174 -3 92 -5 107 -20 110 -11 2 -18 -3 -18 -13 0
-15 -2 -15 -22 -1 -30 21 -42 20 -73 -6z m85 -44 c15 -37 12 -59 -9 -85 -16
-20 -21 -21 -35 -10 -19 16 -22 91 -4 109 19 19 38 14 48 -14z"/>
<path d="M10218 614 c-10 -3 -18 -14 -18 -24 0 -16 5 -18 30 -14 28 6 60 -8
60 -26 0 -4 -18 -10 -40 -13 -53 -7 -70 -22 -70 -63 0 -45 38 -73 76 -55 17 7
31 8 43 1 10 -5 21 -6 25 -3 12 12 6 159 -7 176 -12 18 -69 29 -99 21z m72
-115 c0 -23 -22 -49 -41 -49 -25 0 -35 25 -19 45 14 17 60 20 60 4z"/>
<path d="M10379 616 c-2 -2 -3 -47 -1 -100 3 -85 5 -96 22 -96 15 0 18 10 22
70 4 74 14 95 41 84 14 -5 17 -20 17 -80 0 -72 1 -74 25 -74 24 0 25 2 25 69
0 38 -4 81 -10 95 -12 33 -54 44 -79 22 -16 -15 -19 -15 -24 -1 -6 14 -28 21
-38 11z"/>
<path d="M10577 614 c-4 -4 -7 -49 -7 -101 0 -93 0 -93 25 -93 l26 0 -3 97
c-2 79 -6 98 -18 101 -9 1 -19 0 -23 -4z"/>
<path d="M10660 598 c0 -14 8 -18 35 -18 19 0 35 -3 35 -8 0 -4 -16 -29 -35
-56 -19 -27 -35 -60 -35 -73 0 -22 4 -23 65 -23 51 0 65 3 65 15 0 11 -11 15
-40 15 -22 0 -40 2 -40 6 0 3 18 32 41 65 55 81 51 94 -29 95 -54 0 -62 -2
-62 -18z"/>
<path d="M10848 613 c-10 -2 -18 -12 -18 -22 0 -14 8 -18 42 -17 33 1 43 -3
46 -16 3 -14 -3 -18 -26 -18 -39 0 -82 -35 -82 -66 0 -36 36 -67 68 -59 15 3
41 6 57 5 l30 0 -3 82 c-3 69 -7 86 -24 101 -19 16 -52 20 -90 10z m72 -117
c0 -30 -13 -46 -36 -46 -18 0 -24 5 -24 23 0 30 7 37 37 37 13 0 23 -6 23 -14z"/>
<path d="M11140 520 c0 -93 1 -100 20 -100 19 0 20 7 20 100 0 93 -1 100 -20
100 -19 0 -20 -7 -20 -100z"/>
<path d="M11245 595 c-20 -19 -25 -34 -25 -72 0 -63 18 -95 58 -107 45 -13 79
5 98 51 43 102 -59 201 -131 128z m89 -57 c11 -46 -5 -88 -33 -88 -22 0 -31
19 -31 65 0 49 9 66 34 63 15 -2 24 -14 30 -40z"/>
<path d="M11427 613 c-4 -3 -7 -48 -7 -100 0 -93 0 -93 25 -93 24 0 25 2 25
64 0 46 5 69 16 81 28 28 44 1 44 -76 0 -68 1 -69 26 -69 l26 0 -3 86 c-3 71
-7 88 -23 100 -25 18 -51 18 -69 -1 -13 -13 -16 -13 -21 0 -6 16 -28 20 -39 8z"/>
<path d="M8990 515 c0 -57 4 -95 10 -95 6 0 10 38 10 95 0 57 -4 95 -10 95 -6
0 -10 -38 -10 -95z"/>
<path d="M8622 544 l3 -62 -36 19 c-20 10 -50 30 -68 44 -35 31 -37 29 -15
-18 19 -40 64 -72 128 -91 47 -14 48 -14 42 7 -3 12 -10 45 -16 74 -6 28 -18
59 -26 69 -13 17 -14 13 -12 -42z"/>
<path d="M9363 584 c-9 -16 -43 -142 -43 -159 0 -6 104 31 129 46 20 12 61 76
61 94 0 4 -14 -5 -31 -20 -18 -14 -48 -34 -68 -44 l-36 -19 3 43 c2 24 2 51 0
61 -4 18 -5 18 -15 -2z"/>
<path d="M9020 562 c0 -5 11 -19 25 -32 28 -26 33 -16 9 18 -15 22 -34 30 -34
14z"/>
<path d="M8690 469 c5 -17 17 -43 26 -56 15 -23 15 -25 -3 -19 -10 3 -40 10
-67 16 -27 6 -57 15 -67 21 -30 16 -23 -6 11 -35 37 -31 95 -48 150 -44 22 2
40 4 40 6 0 13 -36 82 -56 109 -32 42 -45 42 -34 2z"/>
<path d="M9277 468 c-26 -35 -57 -92 -57 -105 0 -13 77 -15 120 -3 21 6 53 22
70 36 34 29 41 51 11 35 -10 -6 -40 -15 -67 -21 -27 -6 -57 -13 -67 -16 -18
-6 -18 -4 -3 19 21 32 37 87 26 87 -5 0 -20 -15 -33 -32z"/>
<path d="M8785 343 c-27 -7 -67 -12 -87 -10 -44 3 -49 -5 -13 -21 36 -17 140
-15 199 3 70 21 74 19 30 -20 -25 -22 -33 -34 -23 -35 9 0 24 9 35 21 50 56
87 56 146 2 14 -14 32 -23 40 -21 7 3 -5 17 -31 36 -49 36 -40 39 39 16 67
-20 161 -20 197 0 l28 15 -37 1 c-20 0 -65 6 -100 14 -84 19 -355 19 -423 -1z"/>
</g>
</svg>
